<svg width="244" height="43" viewBox="0 0 244 43" fill="none" xmlns="http://www.w3.org/2000/svg">
<g clip-path="url(#clip0_2_719)">
<path d="M58.5568 22.4084C57.9255 22.4084 57.4792 22.28 57.2179 22.0233C56.9784 21.7665 56.8587 21.3599 56.8587 20.8035V2.21843C56.8587 1.66205 56.9893 1.25547 57.2506 0.99868C57.5118 0.720494 57.9473 0.581398 58.5568 0.581398H66.5903C69.6163 0.581398 71.8481 1.20197 73.2849 2.44312C74.7218 3.68426 75.4403 5.53528 75.4403 7.99617C75.4403 11.0563 74.2431 13.164 71.8481 14.3196L75.0811 21.2208C75.1679 21.392 75.2117 21.5632 75.2117 21.7344C75.2117 21.927 75.1353 22.0875 74.9831 22.2158C74.8525 22.3442 74.6676 22.4084 74.4279 22.4084H69.856C69.5294 22.4084 69.2682 22.3656 69.0722 22.28C68.8979 22.1945 68.7672 22.034 68.6804 21.7986L65.9699 15.2826H63.4553V20.8035C63.4553 21.3599 63.3247 21.7665 63.0634 22.0233C62.8022 22.28 62.3561 22.4084 61.7245 22.4084H58.5568ZM65.8719 10.6925C67.8529 10.6925 68.8437 9.79369 68.8437 7.99617C68.8437 6.17727 67.9077 5.26779 66.0352 5.26779H63.4553V10.6925H65.8719ZM84.9058 22.8899C81.9229 22.8899 79.6043 22.1624 77.9499 20.7072C76.2949 19.2307 75.468 17.2298 75.468 14.7048C75.468 12.1797 76.2949 10.1896 77.9499 8.73444C79.6043 7.2579 81.9229 6.51964 84.9058 6.51964C87.888 6.51964 90.2066 7.2579 91.8616 8.73444C93.5376 10.1896 94.3762 12.1797 94.3762 14.7048C94.3762 17.2298 93.5376 19.2307 91.8616 20.7072C90.2066 22.1624 87.888 22.8899 84.9058 22.8899ZM84.9058 18.2998C86.8214 18.2998 87.7795 17.1015 87.7795 14.7048C87.7795 12.3509 86.8214 11.1739 84.9058 11.1739C82.9895 11.1739 82.032 12.3509 82.032 14.7048C82.032 15.9031 82.2821 16.8019 82.7831 17.4011C83.2834 18.0002 83.9914 18.2998 84.9058 18.2998ZM102.377 22.8899C100.483 22.8899 99.0023 22.4084 97.9357 21.4455C96.8907 20.4611 96.3682 18.9632 96.3682 16.9517V8.63814C96.3682 8.08175 96.4988 7.67519 96.7601 7.4184C97.0213 7.14023 97.4563 7.00112 98.0663 7.00112H101.234C101.865 7.00112 102.312 7.14023 102.573 7.4184C102.834 7.67519 102.965 8.08175 102.965 8.63814V16.6949C102.965 17.9146 103.563 18.5245 104.761 18.5245C105.414 18.5245 105.914 18.3533 106.263 18.0109C106.611 17.6686 106.786 17.1871 106.786 16.5665V8.63814C106.786 8.08175 106.916 7.67519 107.178 7.4184C107.439 7.14023 107.885 7.00112 108.516 7.00112H111.684C112.315 7.00112 112.762 7.14023 113.023 7.4184C113.284 7.67519 113.415 8.08175 113.415 8.63814V21.4134C113.415 21.8199 113.339 22.0875 113.186 22.2158C113.056 22.3442 112.762 22.4084 112.305 22.4084H108.941C108.68 22.4084 108.473 22.3763 108.321 22.3121C108.19 22.2479 108.113 22.1196 108.092 21.927L107.929 20.9319C107.297 21.5311 106.513 22.0125 105.577 22.3763C104.641 22.7187 103.574 22.8899 102.377 22.8899ZM117.939 22.4084C117.308 22.4084 116.861 22.28 116.6 22.0233C116.339 21.7665 116.208 21.3599 116.208 20.8035V7.99617C116.208 7.61099 116.273 7.3542 116.404 7.22581C116.557 7.07603 116.861 7.00112 117.318 7.00112H120.682C120.943 7.00112 121.139 7.04393 121.27 7.12951C121.423 7.19371 121.509 7.3221 121.531 7.51469L121.694 8.47765C122.304 7.8785 123.099 7.40768 124.078 7.06531C125.08 6.70151 126.19 6.51964 127.409 6.51964C129.173 6.51964 130.599 7.01184 131.687 7.99617C132.776 8.95913 133.32 10.3928 133.32 12.2974V20.8035C133.32 21.3599 133.189 21.7665 132.928 22.0233C132.689 22.28 132.253 22.4084 131.622 22.4084H128.454C127.823 22.4084 127.366 22.28 127.083 22.0233C126.821 21.7665 126.691 21.3599 126.691 20.8035V12.7147C126.691 12.0727 126.55 11.6126 126.266 11.3344C125.983 11.0563 125.537 10.9171 124.927 10.9171C124.274 10.9171 123.752 11.0884 123.36 11.4307C122.99 11.7731 122.805 12.2439 122.805 12.8431V20.8035C122.805 21.3599 122.674 21.7665 122.413 22.0233C122.174 22.28 121.738 22.4084 121.106 22.4084H117.939ZM145.092 22.8899C141.848 22.8899 139.41 22.1945 137.777 20.8035C136.144 19.4125 135.327 17.3476 135.327 14.6085C135.327 12.1476 136.024 10.1896 137.418 8.73444C138.811 7.2579 140.781 6.51964 143.328 6.51964C144.047 6.51964 144.744 6.60521 145.418 6.77643C146.093 6.9262 146.627 7.12951 147.019 7.3863V2.21843C147.019 1.66205 147.149 1.25547 147.41 0.99868C147.672 0.720494 148.118 0.581398 148.749 0.581398H151.786C152.418 0.581398 152.864 0.720494 153.125 0.99868C153.387 1.25547 153.517 1.66205 153.517 2.21843V20.6109C152.581 21.2743 151.362 21.8199 149.86 22.2479C148.357 22.6759 146.768 22.8899 145.092 22.8899ZM145.288 18.5245C146.028 18.5245 146.616 18.4068 147.051 18.1714V13.0036C147.051 11.5912 146.279 10.885 144.733 10.885C143.774 10.885 143.056 11.2274 142.577 11.9122C142.12 12.5756 141.891 13.485 141.891 14.6406C141.891 16.0315 142.174 17.0266 142.741 17.6257C143.307 18.2249 144.156 18.5245 145.288 18.5245ZM168.805 22.4084C168.173 22.4084 167.727 22.28 167.466 22.0233C167.226 21.7665 167.107 21.3599 167.107 20.8035V2.21843C167.107 1.66205 167.237 1.25547 167.499 0.99868C167.76 0.720494 168.195 0.581398 168.805 0.581398H176.838C179.864 0.581398 182.096 1.20197 183.533 2.44312C184.97 3.68426 185.688 5.53528 185.688 7.99617C185.688 11.0563 184.49 13.164 182.096 14.3196L185.329 21.2208C185.416 21.392 185.46 21.5632 185.46 21.7344C185.46 21.927 185.383 22.0875 185.231 22.2158C185.1 22.3442 184.915 22.4084 184.676 22.4084H180.104C179.777 22.4084 179.516 22.3656 179.32 22.28C179.146 22.1945 179.015 22.034 178.928 21.7986L176.218 15.2826H173.703V20.8035C173.703 21.3599 173.573 21.7665 173.311 22.0233C173.05 22.28 172.603 22.4084 171.972 22.4084H168.805ZM176.12 10.6925C178.101 10.6925 179.092 9.79369 179.092 7.99617C179.092 6.17727 178.155 5.26779 176.283 5.26779H173.703V10.6925H176.12ZM195.153 22.8899C192.171 22.8899 189.852 22.1624 188.197 20.7072C186.543 19.2307 185.715 17.2298 185.715 14.7048C185.715 12.1797 186.543 10.1896 188.197 8.73444C189.852 7.2579 192.171 6.51964 195.153 6.51964C198.136 6.51964 200.455 7.2579 202.109 8.73444C203.786 10.1896 204.623 12.1797 204.623 14.7048C204.623 17.2298 203.786 19.2307 202.109 20.7072C200.455 22.1624 198.136 22.8899 195.153 22.8899ZM195.153 18.2998C197.069 18.2998 198.027 17.1015 198.027 14.7048C198.027 12.3509 197.069 11.1739 195.153 11.1739C193.237 11.1739 192.279 12.3509 192.279 14.7048C192.279 15.9031 192.53 16.8019 193.03 17.4011C193.531 18.0002 194.239 18.2998 195.153 18.2998ZM214.833 22.8899C211.785 22.8899 209.433 22.1945 207.779 20.8035C206.124 19.4125 205.297 17.3903 205.297 14.7369C205.297 13.1106 205.678 11.6768 206.44 10.4357C207.202 9.19454 208.301 8.23158 209.738 7.54679C211.197 6.862 212.916 6.51964 214.898 6.51964C216.4 6.51964 217.663 6.65875 218.686 6.93692C219.731 7.21509 220.656 7.64309 221.462 8.22086C221.701 8.37064 221.821 8.56323 221.821 8.79864C221.821 8.96985 221.734 9.19454 221.56 9.47271L220.221 11.7517C220.068 12.0513 219.883 12.2011 219.666 12.2011C219.535 12.2011 219.328 12.1155 219.045 11.9443C218.458 11.5805 217.902 11.313 217.38 11.1418C216.879 10.9706 216.247 10.885 215.486 10.885C214.397 10.885 213.515 11.2274 212.841 11.9122C212.188 12.597 211.861 13.5385 211.861 14.7369C211.861 15.9566 212.198 16.8982 212.873 17.5616C213.548 18.2035 214.473 18.5245 215.649 18.5245C216.345 18.5245 216.977 18.4282 217.543 18.2356C218.109 18.043 218.686 17.7755 219.274 17.4332C219.578 17.2619 219.796 17.1764 219.927 17.1764C220.123 17.1764 220.297 17.3261 220.45 17.6257L221.919 20.0973C222.028 20.3113 222.082 20.4825 222.082 20.6109C222.082 20.8035 221.952 20.9854 221.691 21.1566C220.776 21.7344 219.774 22.1624 218.686 22.4405C217.619 22.7401 216.335 22.8899 214.833 22.8899ZM241.956 21.1887C242.108 21.3599 242.184 21.5525 242.184 21.7665C242.184 21.9591 242.119 22.1196 241.988 22.2479C241.858 22.355 241.683 22.4084 241.466 22.4084H236.404C236.099 22.4084 235.87 22.3871 235.718 22.3442C235.587 22.28 235.446 22.1624 235.294 21.9912L230.852 16.0529V20.8035C230.852 21.3599 230.722 21.7665 230.46 22.0233C230.199 22.28 229.752 22.4084 229.121 22.4084H225.954C225.322 22.4084 224.876 22.28 224.615 22.0233C224.375 21.7665 224.256 21.3599 224.256 20.8035V2.21843C224.256 1.66205 224.386 1.25547 224.648 0.99868C224.909 0.720494 225.344 0.581398 225.954 0.581398H229.121C229.752 0.581398 230.199 0.720494 230.46 0.99868C230.722 1.25547 230.852 1.66205 230.852 2.21843V12.9715L235.163 7.4505C235.294 7.27928 235.435 7.16161 235.587 7.09741C235.74 7.03321 235.968 7.00112 236.273 7.00112H241.335C241.553 7.00112 241.716 7.06531 241.825 7.19371C241.956 7.30072 242.021 7.4505 242.021 7.64309C242.021 7.85706 241.944 8.04965 241.792 8.22086L236.208 14.5122L241.956 21.1887ZM62.0591 40.2171C60.0849 40.2171 58.5544 39.7265 57.4675 38.7454C56.3805 37.7534 55.8371 36.3089 55.8371 34.4121C55.8371 32.5044 56.3639 31.0599 57.4175 30.0788C58.4823 29.0977 59.9962 28.6071 61.9593 28.6071C62.8133 28.6071 63.5841 28.6943 64.2717 28.8687C64.9594 29.0323 65.5361 29.2666 66.0019 29.5719C66.1239 29.6482 66.1849 29.7463 66.1849 29.8662C66.1849 29.9425 66.1461 30.057 66.0685 30.2096L65.3531 31.4033C65.2866 31.545 65.1978 31.6159 65.0869 31.6159C65.0204 31.6159 64.9095 31.5777 64.7542 31.5014C64.0887 31.1417 63.3068 30.9618 62.4085 30.9618C61.377 30.9618 60.5785 31.2561 60.0128 31.8448C59.4583 32.4226 59.181 33.2784 59.181 34.4121C59.181 35.5458 59.4805 36.4071 60.0794 36.9957C60.6783 37.5844 61.4935 37.8787 62.5249 37.8787C63.4344 37.8787 64.2385 37.6989 64.9372 37.3391C65.0925 37.2628 65.2034 37.2247 65.2699 37.2247C65.3697 37.2247 65.4585 37.2901 65.5361 37.4209L66.2847 38.68C66.3513 38.789 66.3846 38.8871 66.3846 38.9743C66.3846 39.0724 66.318 39.1706 66.1849 39.2687C65.2533 39.901 63.878 40.2171 62.0591 40.2171ZM70.8215 39.9718C70.4999 39.9718 70.2725 39.9064 70.1394 39.7756C70.0174 39.6448 69.9564 39.4376 69.9564 39.1542V29.6863C69.9564 29.4029 70.023 29.1958 70.1561 29.065C70.2892 28.9232 70.511 28.8524 70.8215 28.8524H72.4353C72.7569 28.8524 72.9843 28.9232 73.1173 29.065C73.2504 29.1958 73.317 29.4029 73.317 29.6863V39.1542C73.317 39.4376 73.2504 39.6448 73.1173 39.7756C72.9843 39.9064 72.7569 39.9718 72.4353 39.9718H70.8215ZM81.7535 40.2171C80.8218 40.2171 79.99 40.0645 79.258 39.7592C78.5371 39.454 77.9659 38.9961 77.5445 38.3857C77.123 37.7752 76.9123 37.0284 76.9123 36.1454C76.9123 34.7609 77.3116 33.7035 78.1101 32.9731C78.9087 32.2427 80.0566 31.8775 81.5538 31.8775C83.0178 31.8775 84.1269 32.2373 84.8811 32.9568C85.6464 33.6654 86.029 34.6519 86.029 35.9165C86.029 36.4616 85.785 36.7341 85.297 36.7341H80.0732C80.0732 37.2029 80.2507 37.5626 80.6056 37.8133C80.9716 38.0641 81.5206 38.1894 82.2526 38.1894C82.7073 38.1894 83.0844 38.1513 83.3838 38.075C83.6944 37.9878 84.0049 37.8624 84.3155 37.6989C84.4486 37.6444 84.5373 37.6171 84.5817 37.6171C84.6815 37.6171 84.7647 37.6825 84.8312 37.8133L85.3968 38.8599C85.4523 38.9689 85.48 39.0506 85.48 39.1052C85.48 39.2033 85.4135 39.2959 85.2804 39.3831C84.8257 39.6775 84.3099 39.8901 83.7332 40.0209C83.1565 40.1517 82.4966 40.2171 81.7535 40.2171ZM83.0345 35.1152C83.0345 34.701 82.9125 34.3794 82.6685 34.1505C82.4245 33.9215 82.0585 33.8071 81.5705 33.8071C81.0825 33.8071 80.7109 33.927 80.4558 34.1668C80.2007 34.3957 80.0732 34.7119 80.0732 35.1152H83.0345ZM92.7292 40.2171C91.6866 40.2171 90.8492 39.8901 90.2171 39.236C89.596 38.571 89.2854 37.6389 89.2854 36.4398C89.2854 35.524 89.4962 34.7228 89.9176 34.036C90.3502 33.3492 90.9546 32.8205 91.731 32.4498C92.5184 32.0683 93.4223 31.8775 94.4427 31.8775C95.2856 31.8775 96.0287 31.9702 96.672 32.1555C97.3263 32.3299 97.9252 32.5861 98.4687 32.9241V39.4649C98.4687 39.672 98.4299 39.8083 98.3522 39.8737C98.2746 39.9391 98.1193 39.9718 97.8864 39.9718H96.1895C96.0675 39.9718 95.9732 39.9555 95.9067 39.9228C95.8402 39.8792 95.7847 39.8137 95.7403 39.7265L95.5241 39.236C95.2024 39.5739 94.8143 39.8192 94.3595 39.9718C93.9159 40.1353 93.3724 40.2171 92.7292 40.2171ZM93.9769 37.9932C94.4094 37.9932 94.7477 37.8896 94.9917 37.6825C95.2357 37.4754 95.3577 37.1811 95.3577 36.7995V34.2486C95.147 34.1505 94.8808 34.1014 94.5592 34.1014C93.9713 34.1014 93.5 34.3031 93.1451 34.7064C92.8012 35.1098 92.6293 35.6767 92.6293 36.4071C92.6293 37.4645 93.0785 37.9932 93.9769 37.9932ZM103.279 39.9718C102.957 39.9718 102.73 39.9064 102.597 39.7756C102.464 39.6448 102.397 39.4376 102.397 39.1542V32.6297C102.397 32.4335 102.431 32.3027 102.497 32.2373C102.575 32.161 102.73 32.1228 102.963 32.1228H104.677C104.81 32.1228 104.909 32.1446 104.976 32.1882C105.054 32.2209 105.098 32.2863 105.109 32.3844L105.192 32.875C105.503 32.5698 105.908 32.3299 106.407 32.1555C106.917 31.9702 107.483 31.8775 108.104 31.8775C109.002 31.8775 109.728 32.1283 110.283 32.6297C110.838 33.1203 111.115 33.8507 111.115 34.8209V39.1542C111.115 39.4376 111.048 39.6448 110.915 39.7756C110.793 39.9064 110.571 39.9718 110.25 39.9718H108.636C108.314 39.9718 108.081 39.9064 107.937 39.7756C107.804 39.6448 107.738 39.4376 107.738 39.1542V35.0335C107.738 34.7064 107.666 34.4721 107.521 34.3303C107.377 34.1886 107.15 34.1178 106.839 34.1178C106.507 34.1178 106.24 34.205 106.041 34.3794C105.852 34.5538 105.758 34.7936 105.758 35.0989V39.1542C105.758 39.4376 105.691 39.6448 105.558 39.7756C105.436 39.9064 105.214 39.9718 104.893 39.9718H103.279ZM116.13 31.2888C115.753 31.2888 115.465 31.1907 115.265 30.9945C115.066 30.7874 114.966 30.5475 114.966 30.275V29.8826C114.966 29.5991 115.066 29.3593 115.265 29.1631C115.465 28.9559 115.753 28.8524 116.13 28.8524H117.328C117.716 28.8524 118.01 28.9559 118.21 29.1631C118.41 29.3593 118.509 29.5991 118.509 29.8826V30.275C118.509 30.5475 118.41 30.7874 118.21 30.9945C118.01 31.1907 117.716 31.2888 117.328 31.2888H116.13ZM115.931 39.9718C115.609 39.9718 115.382 39.9064 115.249 39.7756C115.116 39.6448 115.049 39.4376 115.049 39.1542V32.9568C115.049 32.6733 115.116 32.4662 115.249 32.3354C115.382 32.1937 115.609 32.1228 115.931 32.1228H117.528C117.849 32.1228 118.077 32.1937 118.21 32.3354C118.354 32.4662 118.426 32.6733 118.426 32.9568V39.1542C118.426 39.4376 118.354 39.6448 118.21 39.7756C118.077 39.9064 117.849 39.9718 117.528 39.9718H115.931ZM123.314 39.9718C122.993 39.9718 122.765 39.9064 122.632 39.7756C122.499 39.6448 122.432 39.4376 122.432 39.1542V32.6297C122.432 32.4335 122.466 32.3027 122.532 32.2373C122.61 32.161 122.765 32.1228 122.998 32.1228H124.712C124.845 32.1228 124.945 32.1446 125.011 32.1882C125.089 32.2209 125.133 32.2863 125.144 32.3844L125.227 32.875C125.538 32.5698 125.943 32.3299 126.442 32.1555C126.952 31.9702 127.518 31.8775 128.139 31.8775C129.037 31.8775 129.764 32.1283 130.318 32.6297C130.873 33.1203 131.15 33.8507 131.15 34.8209V39.1542C131.15 39.4376 131.083 39.6448 130.95 39.7756C130.828 39.9064 130.606 39.9718 130.285 39.9718H128.671C128.349 39.9718 128.117 39.9064 127.972 39.7756C127.839 39.6448 127.773 39.4376 127.773 39.1542V35.0335C127.773 34.7064 127.701 34.4721 127.556 34.3303C127.412 34.1886 127.185 34.1178 126.874 34.1178C126.542 34.1178 126.275 34.205 126.076 34.3794C125.887 34.5538 125.793 34.7936 125.793 35.0989V39.1542C125.793 39.4376 125.726 39.6448 125.593 39.7756C125.471 39.9064 125.25 39.9718 124.928 39.9718H123.314ZM139.376 42.7517C138.711 42.7517 138.029 42.6754 137.33 42.5227C136.642 42.381 136.132 42.1957 135.799 41.9668C135.722 41.9014 135.683 41.8305 135.683 41.7542C135.683 41.6997 135.7 41.6452 135.733 41.5907L136.448 40.2989C136.482 40.2444 136.515 40.1953 136.548 40.1517C136.592 40.119 136.637 40.1026 136.681 40.1026C136.703 40.1026 136.77 40.1244 136.881 40.168C137.402 40.4297 138.123 40.5605 139.044 40.5605C139.565 40.5605 139.959 40.4515 140.225 40.2335C140.491 40.0154 140.624 39.6611 140.624 39.1706C140.402 39.3232 140.125 39.4485 139.792 39.5467C139.459 39.6339 139.105 39.6775 138.727 39.6775C137.408 39.6775 136.398 39.3559 135.7 38.7127C135.012 38.0695 134.668 37.1375 134.668 35.9165C134.668 34.5865 135.09 33.5836 135.933 32.9077C136.775 32.2209 138.023 31.8775 139.676 31.8775C140.508 31.8775 141.301 31.992 142.055 32.2209C142.809 32.4498 143.436 32.7387 143.935 33.0876V38.3039C143.935 39.6339 143.546 40.7077 142.77 41.5253C141.994 42.3429 140.862 42.7517 139.376 42.7517ZM139.459 37.3718C140.258 37.3718 140.657 36.9957 140.657 36.2435V34.2649C140.424 34.1668 140.036 34.1178 139.493 34.1178C139.005 34.1178 138.633 34.2377 138.378 34.4775C138.134 34.7173 138.012 35.1479 138.012 35.7693C138.012 36.3253 138.129 36.7341 138.361 36.9957C138.594 37.2465 138.96 37.3718 139.459 37.3718ZM160.456 40.2171C159.525 40.2171 158.643 40.1244 157.811 39.9391C156.979 39.7429 156.308 39.4704 155.798 39.1215C155.61 39.0016 155.515 38.8762 155.515 38.7454C155.515 38.6582 155.549 38.5655 155.615 38.4674L156.43 37.192C156.519 37.0611 156.608 36.9957 156.697 36.9957C156.752 36.9957 156.846 37.0339 156.979 37.1102C157.39 37.3391 157.856 37.5245 158.377 37.6662C158.898 37.8079 159.414 37.8787 159.924 37.8787C160.445 37.8787 160.828 37.8024 161.072 37.6498C161.327 37.4972 161.455 37.2519 161.455 36.914C161.455 36.5869 161.316 36.3307 161.039 36.1454C160.773 35.9601 160.268 35.7257 159.525 35.4423C158.405 35.028 157.528 34.5647 156.896 34.0524C156.275 33.5291 155.965 32.8205 155.965 31.9266C155.965 30.8473 156.358 30.0243 157.146 29.4574C157.933 28.8905 158.981 28.6071 160.29 28.6071C161.2 28.6071 161.976 28.6889 162.619 28.8524C163.274 29.005 163.828 29.2448 164.283 29.5719C164.471 29.7136 164.566 29.8444 164.566 29.9643C164.566 30.0406 164.532 30.1278 164.466 30.226L163.651 31.5014C163.551 31.6322 163.462 31.6976 163.384 31.6976C163.329 31.6976 163.235 31.6595 163.102 31.5832C162.458 31.1689 161.693 30.9618 160.806 30.9618C160.329 30.9618 159.963 31.0381 159.708 31.1907C159.453 31.3434 159.325 31.5941 159.325 31.9429C159.325 32.1828 159.392 32.379 159.525 32.5316C159.658 32.6842 159.835 32.8205 160.057 32.9404C160.29 33.0494 160.645 33.1911 161.122 33.3656L161.438 33.48C162.259 33.7962 162.902 34.1014 163.368 34.3957C163.845 34.6792 164.205 35.0335 164.449 35.4586C164.693 35.8729 164.815 36.3962 164.815 37.0284C164.815 37.9987 164.444 38.7727 163.701 39.3504C162.969 39.9282 161.887 40.2171 160.456 40.2171ZM172.925 40.2171C171.993 40.2171 171.162 40.0645 170.43 39.7592C169.709 39.454 169.138 38.9961 168.716 38.3857C168.295 37.7752 168.084 37.0284 168.084 36.1454C168.084 34.7609 168.483 33.7035 169.282 32.9731C170.08 32.2427 171.228 31.8775 172.725 31.8775C174.189 31.8775 175.299 32.2373 176.053 32.9568C176.818 33.6654 177.201 34.6519 177.201 35.9165C177.201 36.4616 176.957 36.7341 176.469 36.7341H171.245C171.245 37.2029 171.422 37.5626 171.777 37.8133C172.143 38.0641 172.692 38.1894 173.424 38.1894C173.879 38.1894 174.256 38.1513 174.555 38.075C174.866 37.9878 175.177 37.8624 175.487 37.6989C175.62 37.6444 175.709 37.6171 175.753 37.6171C175.853 37.6171 175.936 37.6825 176.003 37.8133L176.568 38.8599C176.624 38.9689 176.652 39.0506 176.652 39.1052C176.652 39.2033 176.585 39.2959 176.452 39.3831C175.997 39.6775 175.482 39.8901 174.905 40.0209C174.328 40.1517 173.668 40.2171 172.925 40.2171ZM174.206 35.1152C174.206 34.701 174.084 34.3794 173.84 34.1505C173.596 33.9215 173.23 33.8071 172.742 33.8071C172.254 33.8071 171.883 33.927 171.627 34.1668C171.372 34.3957 171.245 34.7119 171.245 35.1152H174.206ZM181.671 39.9718C181.35 39.9718 181.122 39.9064 180.989 39.7756C180.856 39.6448 180.79 39.4376 180.79 39.1542V32.6297C180.79 32.4335 180.823 32.3027 180.89 32.2373C180.967 32.161 181.122 32.1228 181.355 32.1228H183.069C183.202 32.1228 183.302 32.1446 183.368 32.1882C183.446 32.2209 183.49 32.2863 183.501 32.3844L183.585 32.8587C184.25 32.2046 185.054 31.8775 185.997 31.8775C186.363 31.8775 186.662 31.9102 186.895 31.9756C187.128 32.0301 187.339 32.1228 187.527 32.2536C187.638 32.3299 187.694 32.4171 187.694 32.5153C187.694 32.548 187.683 32.6079 187.661 32.6951L187.128 34.1832C187.084 34.3358 187.001 34.4121 186.879 34.4121C186.823 34.4121 186.757 34.3903 186.679 34.3467C186.38 34.1832 186.019 34.1014 185.598 34.1014C185.176 34.1014 184.827 34.2159 184.55 34.4448C184.283 34.6737 184.15 34.979 184.15 35.3605V39.1542C184.15 39.4376 184.084 39.6448 183.951 39.7756C183.829 39.9064 183.607 39.9718 183.285 39.9718H181.671ZM194.697 39.9718C194.486 39.9718 194.325 39.9337 194.214 39.8573C194.114 39.781 194.014 39.6393 193.915 39.4322L190.704 32.7442C190.648 32.6352 190.621 32.5371 190.621 32.4498C190.621 32.3517 190.648 32.2754 190.704 32.2209C190.77 32.1555 190.859 32.1228 190.97 32.1228H193.399C193.565 32.1228 193.693 32.1555 193.782 32.2209C193.87 32.2863 193.942 32.3899 193.998 32.5316L195.429 36.2599L196.859 32.5316C196.915 32.3899 196.987 32.2863 197.076 32.2209C197.164 32.1555 197.292 32.1228 197.458 32.1228H199.904C200.015 32.1228 200.098 32.1555 200.153 32.2209C200.22 32.2754 200.253 32.3517 200.253 32.4498C200.253 32.5371 200.225 32.6352 200.17 32.7442L196.959 39.4322C196.859 39.6393 196.754 39.781 196.643 39.8573C196.543 39.9337 196.388 39.9718 196.177 39.9718H194.697ZM205.011 31.2888C204.634 31.2888 204.346 31.1907 204.146 30.9945C203.946 30.7874 203.847 30.5475 203.847 30.275V29.8826C203.847 29.5991 203.946 29.3593 204.146 29.1631C204.346 28.9559 204.634 28.8524 205.011 28.8524H206.209C206.597 28.8524 206.891 28.9559 207.091 29.1631C207.29 29.3593 207.39 29.5991 207.39 29.8826V30.275C207.39 30.5475 207.29 30.7874 207.091 30.9945C206.891 31.1907 206.597 31.2888 206.209 31.2888H205.011ZM204.811 39.9718C204.49 39.9718 204.262 39.9064 204.129 39.7756C203.996 39.6448 203.93 39.4376 203.93 39.1542V32.9568C203.93 32.6733 203.996 32.4662 204.129 32.3354C204.262 32.1937 204.49 32.1228 204.811 32.1228H206.409C206.73 32.1228 206.958 32.1937 207.091 32.3354C207.235 32.4662 207.307 32.6733 207.307 32.9568V39.1542C207.307 39.4376 207.235 39.6448 207.091 39.7756C206.958 39.9064 206.73 39.9718 206.409 39.9718H204.811ZM215.839 40.2171C214.286 40.2171 213.088 39.8628 212.245 39.1542C211.402 38.4456 210.981 37.4154 210.981 36.0637C210.981 35.2352 211.175 34.5048 211.563 33.8725C211.952 33.2402 212.512 32.7496 213.244 32.4008C213.987 32.0519 214.863 31.8775 215.872 31.8775C216.637 31.8775 217.281 31.9484 217.802 32.0901C218.334 32.2318 218.806 32.4498 219.216 32.7442C219.338 32.8205 219.399 32.9186 219.399 33.0385C219.399 33.1257 219.355 33.2402 219.266 33.3819L218.584 34.5429C218.506 34.6955 218.412 34.7718 218.301 34.7718C218.234 34.7718 218.129 34.7282 217.985 34.641C217.686 34.4557 217.403 34.3194 217.137 34.2322C216.881 34.145 216.56 34.1014 216.172 34.1014C215.617 34.1014 215.168 34.2758 214.824 34.6247C214.491 34.9735 214.325 35.4532 214.325 36.0637C214.325 36.685 214.497 37.1647 214.841 37.5026C215.185 37.8297 215.656 37.9932 216.255 37.9932C216.61 37.9932 216.931 37.9442 217.22 37.846C217.508 37.7479 217.802 37.6117 218.101 37.4372C218.257 37.35 218.368 37.3064 218.434 37.3064C218.534 37.3064 218.623 37.3827 218.7 37.5354L219.449 38.7945C219.504 38.9035 219.532 38.9907 219.532 39.0561C219.532 39.1542 219.466 39.2469 219.333 39.3341C218.867 39.6284 218.357 39.8465 217.802 39.9882C217.258 40.1408 216.604 40.2171 215.839 40.2171ZM227.643 40.2171C226.712 40.2171 225.88 40.0645 225.148 39.7592C224.427 39.454 223.856 38.9961 223.434 38.3857C223.013 37.7752 222.802 37.0284 222.802 36.1454C222.802 34.7609 223.201 33.7035 224 32.9731C224.798 32.2427 225.946 31.8775 227.444 31.8775C228.908 31.8775 230.017 32.2373 230.771 32.9568C231.536 33.6654 231.919 34.6519 231.919 35.9165C231.919 36.4616 231.675 36.7341 231.187 36.7341H225.963C225.963 37.2029 226.14 37.5626 226.495 37.8133C226.861 38.0641 227.41 38.1894 228.142 38.1894C228.597 38.1894 228.974 38.1513 229.274 38.075C229.584 37.9878 229.895 37.8624 230.205 37.6989C230.338 37.6444 230.427 37.6171 230.471 37.6171C230.571 37.6171 230.654 37.6825 230.721 37.8133L231.287 38.8599C231.342 38.9689 231.37 39.0506 231.37 39.1052C231.37 39.2033 231.303 39.2959 231.17 39.3831C230.715 39.6775 230.2 39.8901 229.623 40.0209C229.046 40.1517 228.386 40.2171 227.643 40.2171ZM228.924 35.1152C228.924 34.701 228.802 34.3794 228.558 34.1505C228.314 33.9215 227.948 33.8071 227.46 33.8071C226.972 33.8071 226.601 33.927 226.346 34.1668C226.091 34.3957 225.963 34.7119 225.963 35.1152H228.924ZM239.368 40.2171C237.804 40.2171 236.512 39.9337 235.491 39.3668C235.281 39.236 235.175 39.1215 235.175 39.0234C235.175 38.9689 235.203 38.8871 235.258 38.7781L235.957 37.5517C236.024 37.4209 236.107 37.3555 236.207 37.3555C236.273 37.3555 236.368 37.3882 236.49 37.4536C236.8 37.6171 237.194 37.7697 237.671 37.9114C238.159 38.0423 238.591 38.1077 238.968 38.1077C239.323 38.1077 239.578 38.075 239.734 38.0096C239.889 37.9333 239.967 37.8133 239.967 37.6498C239.967 37.4972 239.856 37.3718 239.634 37.2737C239.423 37.1647 239.035 37.0284 238.469 36.8649L238.103 36.7668C237.183 36.4943 236.517 36.1836 236.107 35.8347C235.697 35.4859 235.491 34.9899 235.491 34.3467C235.491 33.5509 235.841 32.9404 236.539 32.5153C237.238 32.0901 238.175 31.8775 239.351 31.8775C240.083 31.8775 240.721 31.9429 241.264 32.0737C241.808 32.2046 242.329 32.4008 242.828 32.6624C243.028 32.7714 243.127 32.8914 243.127 33.0222C243.127 33.0985 243.094 33.1966 243.028 33.3165L242.346 34.3794C242.268 34.4993 242.19 34.5593 242.113 34.5593C242.046 34.5593 241.957 34.5266 241.846 34.4612C241.58 34.3194 241.27 34.205 240.915 34.1178C240.56 34.0305 240.216 33.9869 239.883 33.9869C239.118 33.9869 238.735 34.1505 238.735 34.4775C238.735 34.6301 238.857 34.7609 239.101 34.87C239.357 34.9681 239.745 35.0771 240.266 35.197C240.388 35.2297 240.554 35.2733 240.765 35.3278C240.987 35.3823 241.17 35.4368 241.314 35.4913C241.846 35.6767 242.257 35.8674 242.545 36.0637C242.834 36.249 243.039 36.4725 243.161 36.7341C243.283 36.9848 243.344 37.3064 243.344 37.6989C243.344 38.1676 243.2 38.5928 242.911 38.9743C242.623 39.345 242.179 39.6448 241.58 39.8737C240.981 40.1026 240.244 40.2171 239.368 40.2171Z" fill="#7C4032"/>
<path d="M16.2938 35.2501H13.257V30.743H29.875V35.2501H26.8366C26.6848 35.2501 26.5392 35.3093 26.4318 35.4147C26.3244 35.52 26.2641 35.6629 26.2641 35.8118C26.2641 35.9608 26.3244 36.1037 26.4318 36.209C26.5392 36.3143 26.6848 36.3736 26.8366 36.3736H29.896C30.1936 36.3731 30.4788 36.257 30.6891 36.0505C30.8996 35.8441 31.0179 35.5643 31.0184 35.2723V30.7248C31.0179 30.4328 30.8996 30.153 30.6891 29.9465C30.4788 29.7401 30.1936 29.624 29.896 29.6235H13.2352C12.9376 29.6237 12.6522 29.7398 12.4418 29.9463C12.2313 30.1528 12.113 30.4327 12.1129 30.7248V35.2723C12.1133 35.5643 12.2316 35.8441 12.4421 36.0505C12.6524 36.257 12.9376 36.3731 13.2352 36.3736H16.2938C16.4456 36.3736 16.5912 36.3143 16.6986 36.209C16.806 36.1037 16.8663 35.9608 16.8663 35.8118C16.8663 35.6629 16.806 35.52 16.6986 35.4147C16.5912 35.3093 16.4456 35.2501 16.2938 35.2501Z" fill="#7C4032"/>
<path d="M29.3639 31.9338C29.3639 31.8969 29.3565 31.8603 29.3421 31.8262C29.3277 31.7922 29.3066 31.7613 29.28 31.7351C29.2533 31.7091 29.2217 31.6885 29.1869 31.6744C29.1522 31.6604 29.1149 31.6532 29.0773 31.6533H14.0588C13.983 31.6533 13.9103 31.6829 13.8567 31.7355C13.8031 31.788 13.7729 31.8594 13.7729 31.9338C13.7729 32.0082 13.8031 32.0795 13.8567 32.1321C13.9103 32.1847 13.983 32.2142 14.0588 32.2142H29.0773C29.1149 32.2143 29.1522 32.2072 29.1869 32.1931C29.2217 32.1791 29.2533 32.1584 29.28 32.1324C29.3066 32.1063 29.3277 32.0753 29.3421 32.0413C29.3565 32.0072 29.3639 31.9707 29.3639 31.9338Z" fill="#7C4032"/>
<path d="M9.98456 27.5328C9.9097 27.5396 9.83699 27.5609 9.77051 27.5953C9.70409 27.6298 9.64524 27.6768 9.59731 27.7336C9.54937 27.7904 9.51332 27.8559 9.49126 27.9264C9.46914 27.9969 9.46144 28.0709 9.46859 28.1444L10.0936 34.6757C10.107 34.8148 10.1727 34.9439 10.278 35.038C10.3833 35.132 10.5204 35.1842 10.6628 35.1844H10.7169C10.868 35.1703 11.0071 35.098 11.1039 34.9833C11.2006 34.8686 11.247 34.721 11.2328 34.5727L10.6079 28.0406C10.601 27.9671 10.5794 27.8956 10.5443 27.8303C10.5093 27.7649 10.4614 27.707 10.4035 27.6598C10.3456 27.6127 10.2788 27.5772 10.2069 27.5554C10.135 27.5336 10.0594 27.5259 9.98456 27.5328Z" fill="#7C4032"/>
<path d="M8.85104 19.7718C8.79743 19.8297 8.75677 19.898 8.73163 19.9722C8.70649 20.0464 8.69737 20.125 8.70489 20.2028L9.11667 24.4921C9.13934 24.6333 9.21599 24.7607 9.33109 24.8484C9.44613 24.936 9.59093 24.9773 9.73597 24.9639C9.88102 24.9505 10.0153 24.8833 10.1116 24.7761C10.208 24.6688 10.259 24.5296 10.2543 24.3867L9.90147 20.7115H33.2286L31.8939 34.5704C31.8797 34.7186 31.9261 34.8663 32.0228 34.981C32.1196 35.0956 32.2588 35.1679 32.4099 35.182C32.4276 35.182 32.4462 35.182 32.464 35.182C32.6056 35.1808 32.7418 35.1282 32.8462 35.0343C32.9506 34.9403 33.0158 34.8118 33.0292 34.6734L34.4196 20.2004C34.427 20.1226 34.4177 20.0441 34.3925 19.9699C34.3672 19.8958 34.3264 19.8277 34.2728 19.7699C34.2192 19.7121 34.1538 19.6659 34.0809 19.6343C34.008 19.6027 33.9292 19.5864 33.8495 19.5864H9.2741C9.1943 19.5867 9.1155 19.6034 9.0426 19.6353C8.96977 19.6672 8.90452 19.7137 8.85104 19.7718Z" fill="#7C4032"/>
<path d="M12.7805 23.9209C12.7131 23.9494 12.6593 24.0022 12.6304 24.0684C12.6014 24.1346 12.5995 24.2092 12.625 24.2768C12.6505 24.3444 12.7014 24.3998 12.7673 24.4316C12.8332 24.4634 12.9091 24.4692 12.9792 24.4477C13.2203 24.3586 13.4285 24.2002 13.5763 23.9931C13.7242 23.786 13.8048 23.5399 13.8076 23.287C13.8088 23.1233 13.777 22.9609 13.7143 22.8092C13.6515 22.6574 13.5589 22.5193 13.4417 22.4027C13.3245 22.2861 13.185 22.1933 13.0312 22.1295C12.8775 22.0658 12.7125 22.0325 12.5456 22.0313H12.5367C12.2012 22.0317 11.8795 22.162 11.6413 22.3939C11.4032 22.6257 11.268 22.9405 11.265 23.2697C11.2648 23.344 11.2945 23.4155 11.3477 23.4685C11.4009 23.5214 11.4734 23.5516 11.5492 23.5525C11.6247 23.5522 11.697 23.5229 11.7505 23.4707C11.804 23.4185 11.8344 23.3477 11.835 23.2736C11.8368 23.0926 11.9111 22.9197 12.0421 22.7922C12.173 22.6648 12.3499 22.5932 12.5342 22.593H12.5391C12.7245 22.5943 12.9017 22.6677 13.0319 22.7971C13.1621 22.9264 13.2346 23.1013 13.2335 23.2831C13.2321 23.4217 13.1881 23.5568 13.1073 23.6705C13.0265 23.7843 12.9126 23.8715 12.7805 23.9209Z" fill="#7C4032"/>
<path d="M9.42223 18.1192C9.38415 18.2633 9.40603 18.4164 9.48292 18.5448C9.55982 18.6731 9.68552 18.7662 9.83241 18.8037C9.87967 18.8155 9.92816 18.8216 9.97696 18.8219C10.1036 18.8217 10.2266 18.7803 10.3266 18.7042C10.4267 18.628 10.4982 18.5215 10.53 18.4012C10.6448 17.9694 10.8573 17.5684 11.1516 17.2281C11.4458 16.8878 11.8144 16.6168 12.23 16.4353C12.6455 16.2538 13.0973 16.1665 13.552 16.1797C14.0067 16.1929 14.4525 16.3064 14.8563 16.5117C14.9546 16.5686 15.0679 16.5954 15.1817 16.5886C15.2955 16.5818 15.4047 16.5418 15.4952 16.4737C15.5857 16.4055 15.6533 16.3123 15.6894 16.2062C15.7255 16.1 15.7283 15.9856 15.6977 15.8779C15.6295 15.596 15.6273 15.3027 15.6912 15.0199C15.7551 14.7371 15.8835 14.4722 16.0667 14.2451C16.25 14.0179 16.4833 13.8345 16.7491 13.7085C17.0149 13.5826 17.3064 13.5173 17.6017 13.5178C17.9078 13.5164 18.2099 13.5865 18.4831 13.7222C18.7563 13.8578 18.9928 14.0553 19.1729 14.2981C19.2379 14.3828 19.326 14.4477 19.4271 14.4853C19.5281 14.523 19.6379 14.5318 19.7439 14.5107C19.8498 14.4897 19.9474 14.4396 20.0256 14.3664C20.1038 14.2931 20.1592 14.1998 20.1855 14.0969C20.2537 13.8156 20.3955 13.5566 20.5969 13.3454C20.7982 13.1343 21.0522 12.9783 21.3337 12.8928C21.6152 12.8073 21.9146 12.7953 22.2023 12.8579C22.49 12.9205 22.7562 13.0557 22.9744 13.2499C23.0384 13.3066 23.1145 13.3484 23.1971 13.3722C23.2798 13.3959 23.367 13.401 23.4519 13.3872C23.5369 13.3733 23.6176 13.3408 23.688 13.2921C23.7584 13.2434 23.8167 13.1797 23.8585 13.1058C24.2779 12.367 24.9747 11.8182 25.8005 11.576C26.6262 11.3339 27.5157 11.4177 28.2794 11.8096C29.0431 12.2015 29.6207 12.8705 29.8891 13.674C30.1576 14.4776 30.0957 15.3522 29.7166 16.1116C29.6736 16.1973 29.6536 16.2923 29.6585 16.3877C29.6633 16.4831 29.6929 16.5757 29.7444 16.6567C29.7959 16.7377 29.8676 16.8046 29.9527 16.8509C30.0378 16.8972 30.1336 16.9214 30.2309 16.9213C30.28 16.9212 30.3288 16.9149 30.3762 16.9023C30.5384 16.8609 30.7053 16.8398 30.8728 16.8397C31.3231 16.8403 31.7594 16.9934 32.1079 17.2732C32.4564 17.5529 32.6958 17.9421 32.7857 18.3751C32.8156 18.521 32.9035 18.6493 33.0298 18.7317C33.1562 18.814 33.3108 18.8438 33.4595 18.8144C33.6082 18.7849 33.7389 18.6988 33.8229 18.5748C33.9068 18.4508 33.9372 18.2992 33.9072 18.1533C33.7713 17.4996 33.4202 16.9078 32.908 16.469C32.3958 16.0303 31.7508 15.7688 31.0722 15.725C31.3191 14.7489 31.215 13.7191 30.7775 12.8095C30.3401 11.9 29.596 11.1665 28.6711 10.733C27.7463 10.2995 26.6972 10.1925 25.7012 10.4301C24.7052 10.6676 23.8233 11.2352 23.2045 12.037C22.5706 11.6961 21.8282 11.6046 21.128 11.7812C20.4279 11.9578 19.8224 12.3892 19.4345 12.9878C18.9911 12.665 18.4677 12.4645 17.9185 12.4073C17.3695 12.3501 16.8148 12.4381 16.3121 12.6624C15.8095 12.8866 15.3772 13.2387 15.0601 13.6823C14.743 14.1258 14.5528 14.6446 14.5091 15.1846C14.1662 15.0979 13.8136 15.0536 13.4594 15.0532C12.5355 15.0534 11.6378 15.3546 10.9071 15.9095C10.1764 16.4645 9.65415 17.2416 9.42223 18.1192Z" fill="#7C4032"/>
<path d="M13.8995 12.979C13.8995 12.6779 13.8084 12.3835 13.638 12.133C13.4674 11.8826 13.2251 11.6875 12.9414 11.5722C12.6579 11.457 12.3459 11.4268 12.0448 11.4855C11.7437 11.5443 11.4673 11.6893 11.2502 11.9023C11.0332 12.1152 10.8854 12.3865 10.8255 12.6819C10.7656 12.9773 10.7963 13.2835 10.9138 13.5617C11.0313 13.8399 11.2302 14.0778 11.4854 14.2451C11.7406 14.4124 12.0406 14.5017 12.3476 14.5017C12.5517 14.503 12.7541 14.4645 12.943 14.3884C13.1318 14.3123 13.3034 14.2002 13.4478 14.0586C13.5922 13.9169 13.7065 13.7486 13.784 13.5632C13.8615 13.3779 13.9007 13.1793 13.8995 12.979ZM11.3689 12.979C11.3686 12.7889 11.4258 12.6029 11.5333 12.4446C11.6407 12.2863 11.7937 12.1629 11.9726 12.09C12.1516 12.017 12.3486 11.9978 12.5388 12.0347C12.7289 12.0717 12.9035 12.1632 13.0406 12.2976C13.1777 12.432 13.2711 12.6033 13.309 12.7898C13.3468 12.9764 13.3274 13.1697 13.2532 13.3454C13.179 13.5211 13.0533 13.6712 12.8921 13.7768C12.7309 13.8823 12.5414 13.9386 12.3476 13.9384C12.0884 13.9378 11.8399 13.8366 11.6566 13.6568C11.4732 13.477 11.3698 13.2333 11.3689 12.979Z" fill="#7C4032"/>
<path d="M20.7319 7.87603C20.425 7.87639 20.1251 7.96597 19.8701 8.13348C19.6151 8.30106 19.4164 8.53902 19.2992 8.81731C19.182 9.09565 19.1516 9.4018 19.2117 9.69711C19.2719 9.99242 19.4199 10.2636 19.6371 10.4763C19.8542 10.6891 20.1308 10.8339 20.4319 10.8924C20.7329 10.951 21.0449 10.9206 21.3284 10.8052C21.6119 10.6898 21.8541 10.4945 22.0244 10.244C22.1947 9.99351 22.2856 9.69911 22.2854 9.39799C22.2848 8.99415 22.1209 8.60703 21.8296 8.32166C21.5383 8.03634 21.1435 7.87603 20.7319 7.87603ZM20.7319 10.359C20.5382 10.359 20.3489 10.3026 20.1878 10.197C20.0267 10.0914 19.9012 9.94136 19.827 9.76573C19.7529 9.59015 19.7336 9.3969 19.7713 9.21048C19.8091 9.02407 19.9024 8.85286 20.0394 8.71847C20.1763 8.58402 20.3509 8.4925 20.5408 8.45544C20.7309 8.41838 20.9278 8.43739 21.1067 8.51013C21.2857 8.58287 21.4387 8.70605 21.5463 8.86406C21.6539 9.02213 21.7114 9.20794 21.7114 9.39799C21.7121 9.52438 21.6873 9.64969 21.6384 9.76664C21.5894 9.88352 21.5173 9.98975 21.4262 10.0791C21.3351 10.1685 21.2268 10.2393 21.1077 10.2874C20.9885 10.3354 20.8608 10.3597 20.7319 10.359Z" fill="#7C4032"/>
<path d="M15.0186 12.0576C15.2592 12.0568 15.4896 11.9624 15.6594 11.7952C15.8292 11.628 15.9246 11.4016 15.9246 11.1655C15.9244 10.9892 15.8709 10.8169 15.7709 10.6703C15.6709 10.5238 15.5288 10.4097 15.3627 10.3424C15.1965 10.2752 15.0138 10.2577 14.8376 10.2924C14.6614 10.3271 14.4996 10.4123 14.3727 10.5372C14.2458 10.6621 14.1596 10.8212 14.1249 10.9942C14.0902 11.1672 14.1086 11.3465 14.1777 11.5092C14.2469 11.672 14.3637 11.811 14.5134 11.9086C14.663 12.0062 14.8389 12.0581 15.0186 12.0576ZM14.6803 11.1655C14.6803 11.0781 14.7157 10.9943 14.7787 10.9325C14.8417 10.8707 14.9271 10.8359 15.0162 10.8359C15.1051 10.8362 15.1902 10.8708 15.2532 10.9324C15.3161 10.994 15.3517 11.0775 15.3521 11.1647C15.3518 11.252 15.3164 11.3356 15.2534 11.3973C15.1904 11.4589 15.1051 11.4935 15.0162 11.4935C14.9721 11.4936 14.9284 11.4852 14.8877 11.4687C14.847 11.4522 14.8099 11.4281 14.7787 11.3975C14.7475 11.3669 14.7227 11.3307 14.7059 11.2908C14.689 11.2508 14.6803 11.208 14.6803 11.1647V11.1655Z" fill="#7C4032"/>
<path d="M22.986 7.30643C23.1055 7.30624 23.2237 7.28293 23.334 7.23787C23.4442 7.19281 23.5444 7.12686 23.6287 7.04376C23.713 6.96067 23.7797 6.86213 23.8252 6.75372C23.8706 6.64532 23.8938 6.52922 23.8935 6.41197C23.8929 6.17631 23.797 5.95049 23.6268 5.78413C23.4567 5.61777 23.2262 5.52445 22.986 5.52466C22.8645 5.5211 22.7435 5.54152 22.6302 5.58469C22.5168 5.62786 22.4135 5.69291 22.3263 5.77599C22.239 5.85907 22.1696 5.95848 22.1223 6.06833C22.0749 6.17819 22.0505 6.29629 22.0505 6.41554C22.0505 6.53485 22.0749 6.65289 22.1223 6.76275C22.1696 6.87261 22.239 6.97206 22.3263 7.05509C22.4135 7.13818 22.5168 7.20323 22.6302 7.24641C22.7435 7.28959 22.8645 7.31 22.986 7.30643ZM22.986 6.08559C23.0745 6.08577 23.1593 6.12011 23.2222 6.18122C23.285 6.24227 23.3208 6.32518 23.3219 6.41197C23.3219 6.49942 23.2865 6.58324 23.2235 6.64501C23.1605 6.70685 23.0751 6.74155 22.986 6.74155C22.897 6.74137 22.8117 6.70655 22.7487 6.64483C22.6857 6.58306 22.6503 6.49936 22.6501 6.41197C22.6512 6.32518 22.687 6.24227 22.7498 6.18122C22.8127 6.12011 22.8975 6.08577 22.986 6.08559Z" fill="#7C4032"/>
<path d="M24.7965 9.12701C24.9255 9.12683 25.0504 9.08274 25.1499 9.00225C25.2494 8.92176 25.3174 8.8099 25.3423 8.68575C25.3671 8.56159 25.3472 8.43284 25.2862 8.3214C25.2251 8.20996 25.1265 8.12281 25.0072 8.07472C24.8879 8.02664 24.7553 8.02064 24.632 8.05783C24.5088 8.09495 24.4024 8.1729 24.3311 8.27834C24.2599 8.38384 24.2282 8.51024 24.2413 8.63615C24.2545 8.762 24.3117 8.87949 24.4033 8.96858C24.5079 9.07033 24.6493 9.12732 24.7965 9.12701ZM24.7804 8.58115C24.7804 8.57698 24.782 8.57292 24.7851 8.56995C24.7881 8.56698 24.7922 8.56535 24.7965 8.56535C24.8007 8.56553 24.8047 8.56723 24.8078 8.57007C24.8104 8.57328 24.8122 8.5771 24.8127 8.58115C24.8127 8.5986 24.7804 8.5986 24.7804 8.58115Z" fill="#7C4032"/>
<path d="M31.5459 10.7441C31.5459 10.5995 31.4874 10.4608 31.3832 10.3586C31.279 10.2564 31.1377 10.1989 30.9904 10.1989C30.8803 10.1989 30.7727 10.231 30.6812 10.291C30.5897 10.351 30.5184 10.4363 30.4763 10.5361C30.4342 10.6359 30.4232 10.7457 30.4448 10.8516C30.4663 10.9575 30.5194 11.0548 30.5973 11.1311C30.6751 11.2074 30.7743 11.2593 30.8823 11.2803C30.9902 11.3012 31.1021 11.2903 31.2038 11.2489C31.3055 11.2075 31.3923 11.1374 31.4533 11.0475C31.5143 10.9577 31.5468 10.852 31.5467 10.7441H31.5459ZM30.9734 10.7441C30.9734 10.742 30.9738 10.7399 30.9746 10.7381C30.9754 10.7362 30.9766 10.7345 30.9782 10.7331C30.9796 10.7317 30.9814 10.7306 30.9834 10.7299C30.9854 10.7292 30.9875 10.7289 30.9895 10.729C30.9936 10.7293 30.9974 10.731 31.0003 10.7337C31.0032 10.7364 31.0051 10.7401 31.0057 10.7441C31.0057 10.7482 31.004 10.7522 31.001 10.7553C30.9979 10.7582 30.9938 10.7599 30.9895 10.7599C30.9854 10.7595 30.9815 10.7577 30.9785 10.7548C30.9756 10.7519 30.9737 10.7481 30.9734 10.7441Z" fill="#7C4032"/>
<path d="M33.435 12.6415C33.4348 12.4053 33.339 12.1788 33.1687 12.0118C32.9983 11.8448 32.7674 11.751 32.5267 11.751C32.3469 11.751 32.1713 11.8033 32.0219 11.9013C31.8725 11.9992 31.7561 12.1385 31.6873 12.3014C31.6186 12.4643 31.6007 12.6436 31.6358 12.8165C31.6709 12.9894 31.7575 13.1482 31.8846 13.2728C32.0117 13.3974 32.1737 13.4823 32.3499 13.5165C32.5262 13.5509 32.7089 13.5331 32.8749 13.4656C33.0408 13.398 33.1826 13.2836 33.2823 13.1369C33.382 12.9902 33.4352 12.8178 33.435 12.6415ZM32.1907 12.6415C32.191 12.5543 32.2265 12.4706 32.2894 12.409C32.3524 12.3474 32.4377 12.3127 32.5267 12.3127C32.5931 12.3127 32.6581 12.3321 32.7134 12.3683C32.7686 12.4046 32.8116 12.4561 32.8371 12.5163C32.8625 12.5767 32.8691 12.6429 32.856 12.7069C32.843 12.7708 32.811 12.8296 32.7639 12.8757C32.7168 12.9217 32.6569 12.953 32.5917 12.9657C32.5265 12.9783 32.4589 12.9717 32.3975 12.9466C32.3362 12.9215 32.2838 12.8791 32.247 12.8248C32.2101 12.7705 32.1906 12.7068 32.1907 12.6415Z" fill="#7C4032"/>
<path d="M36.8205 8.01538C34.5423 5.78188 31.7832 4.07733 28.7457 3.02689C25.7083 1.97645 22.4697 1.60678 19.2676 1.94503C16.0655 2.28327 12.9814 3.32084 10.2414 4.98156C7.50146 6.64229 5.17534 8.88398 3.43382 11.5421C1.69231 14.2002 0.579605 17.2073 0.1774 20.3426C-0.224805 23.4778 0.0936996 26.6616 1.10953 29.6603C2.12537 32.659 3.81274 35.3964 6.04777 37.6716C8.28281 39.9467 11.0088 41.7019 14.0255 42.8081C14.0896 42.8314 14.1574 42.8435 14.2258 42.8438C14.3598 42.8437 14.4897 42.7974 14.5926 42.713C14.6954 42.6286 14.7648 42.5114 14.7887 42.3819C14.8125 42.2525 14.7892 42.1189 14.723 42.0045C14.6567 41.8901 14.5516 41.8022 14.426 41.756C6.48233 38.8469 1.14514 31.2982 1.14514 22.9796C1.14514 11.9307 10.3064 2.94178 21.5671 2.94178C32.8277 2.94178 41.9881 11.9292 41.9881 22.978C41.991 26.2863 41.1578 29.5437 39.5631 32.4587C37.9684 35.3736 35.662 37.8551 32.8503 39.6811C32.8147 39.7041 32.7009 39.7809 32.6742 39.7952C29.0747 41.7552 25.3475 42.4096 23.4 41.432C22.8307 41.146 22.4488 40.7253 22.2574 40.1794H22.4697C23.0497 40.1788 23.6057 39.9525 24.0158 39.5501C24.4258 39.1477 24.6565 38.6022 24.6571 38.0332V37.935C24.8613 37.851 25.0356 37.7097 25.1582 37.5288C25.2809 37.348 25.3465 37.1357 25.3467 36.9185V34.5417C25.3496 34.4663 25.3369 34.391 25.3095 34.3204C25.282 34.2498 25.2404 34.1854 25.187 34.131C25.1335 34.0766 25.0695 34.0333 24.9987 34.0037C24.9278 33.9742 24.8516 33.9589 24.7746 33.9589C24.6977 33.9589 24.6214 33.9742 24.5506 34.0037C24.4797 34.0333 24.4157 34.0766 24.3623 34.131C24.3089 34.1854 24.2672 34.2498 24.2398 34.3204C24.2123 34.391 24.1997 34.4663 24.2026 34.5417V36.8955H18.9308V34.5434C18.9337 34.4678 18.921 34.3925 18.8935 34.322C18.8661 34.2514 18.8244 34.187 18.771 34.1325C18.7176 34.0782 18.6536 34.0349 18.5827 34.0053C18.5118 33.9757 18.4357 33.9605 18.3587 33.9605C18.2817 33.9605 18.2055 33.9757 18.1346 34.0053C18.0638 34.0349 17.9997 34.0782 17.9463 34.1325C17.8929 34.187 17.8512 34.2514 17.8238 34.322C17.7963 34.3925 17.7837 34.4678 17.7866 34.5434V36.9201C17.7868 37.1373 17.8524 37.3496 17.975 37.5304C18.0977 37.7112 18.272 37.8525 18.4762 37.9365V38.0348C18.4768 38.6038 18.7075 39.1494 19.1175 39.5517C19.5276 39.9541 20.0836 40.1804 20.6635 40.181H21.0672C21.2958 41.1753 21.9143 41.9493 22.8743 42.4326C23.6357 42.8161 24.5869 43.0022 25.6641 43.0022C27.853 43.0022 30.5588 42.2314 33.2274 40.7784C33.2782 40.7507 33.443 40.6429 33.4809 40.6199C36.1451 38.8877 38.3837 36.5962 40.0347 33.9112C41.6858 31.2261 42.7081 28.2146 43.0277 25.0944C43.3473 21.9742 42.9562 18.8233 41.8827 15.8696C40.8092 12.9159 39.0801 10.2331 36.8205 8.01538ZM19.6219 38.0332V38.0237H23.5138V38.0372C23.5114 38.3074 23.4005 38.5658 23.205 38.7562C23.0094 38.9466 22.7452 39.0534 22.4697 39.0536H20.6635C20.3877 39.053 20.1234 38.9453 19.9283 38.7541C19.7331 38.563 19.623 38.3038 19.6219 38.0332Z" fill="#7C4032"/>
<path d="M12.6936 23.0438C12.662 23.0238 12.6267 23.0101 12.5897 23.0036C12.5527 22.9971 12.5146 22.9977 12.4779 23.0056C12.4411 23.0135 12.4063 23.0284 12.3754 23.0495C12.3446 23.0706 12.3183 23.0975 12.298 23.1286C10.9012 25.2613 9.28626 26.3618 7.2337 27.7554L6.84213 28.0216C6.79228 28.0557 6.75482 28.1045 6.7351 28.1609C6.71538 28.2173 6.71446 28.2784 6.73245 28.3353C6.75038 28.3923 6.78637 28.4421 6.83511 28.4777C6.88384 28.5134 6.94281 28.5328 7.00356 28.5334C7.06142 28.533 7.1178 28.5154 7.16506 28.4827L7.55589 28.2173C9.5745 26.8443 11.3186 25.6591 12.776 23.432C12.8174 23.3698 12.8318 23.294 12.8164 23.2213C12.801 23.1485 12.7569 23.0848 12.6936 23.0438Z" fill="#7C4032"/>
</g>
<defs>
<clipPath id="clip0_2_719">
<rect width="244" height="43" fill="white"/>
</clipPath>
</defs>
</svg>
