<svg width="1903" height="959" viewBox="0 0 1903 959" fill="none" xmlns="http://www.w3.org/2000/svg">
<g opacity="0.2">
<path d="M329.183 186.925L303.562 162.822" stroke="#B76C4E" stroke-width="5" stroke-miterlimit="10" stroke-linecap="round" stroke-linejoin="round"/>
<path d="M304.237 187.768L328.34 162.148" stroke="#B76C4E" stroke-width="5" stroke-miterlimit="10" stroke-linecap="round" stroke-linejoin="round"/>
<path d="M1283.23 186.925L1257.61 162.822" stroke="#B76C4E" stroke-width="5" stroke-miterlimit="10" stroke-linecap="round" stroke-linejoin="round"/>
<path d="M1258.29 187.768L1282.39 162.148" stroke="#B76C4E" stroke-width="5" stroke-miterlimit="10" stroke-linecap="round" stroke-linejoin="round"/>
<path d="M358.678 556.899L333.058 532.796" stroke="#B76C4E" stroke-width="5" stroke-miterlimit="10" stroke-linecap="round" stroke-linejoin="round"/>
<path d="M333.9 557.573L358.003 531.953" stroke="#B76C4E" stroke-width="5" stroke-miterlimit="10" stroke-linecap="round" stroke-linejoin="round"/>
<path d="M1312.73 556.899L1287.11 532.796" stroke="#B76C4E" stroke-width="5" stroke-miterlimit="10" stroke-linecap="round" stroke-linejoin="round"/>
<path d="M1287.95 557.573L1312.05 531.953" stroke="#B76C4E" stroke-width="5" stroke-miterlimit="10" stroke-linecap="round" stroke-linejoin="round"/>
<path d="M45.8469 763.545L20.2268 739.442" stroke="#B76C4E" stroke-width="5" stroke-miterlimit="10" stroke-linecap="round" stroke-linejoin="round"/>
<path d="M21.0688 764.22L45.1719 738.599" stroke="#B76C4E" stroke-width="5" stroke-miterlimit="10" stroke-linecap="round" stroke-linejoin="round"/>
<path d="M999.895 763.545L974.275 739.442" stroke="#B76C4E" stroke-width="5" stroke-miterlimit="10" stroke-linecap="round" stroke-linejoin="round"/>
<path d="M975.117 764.22L999.22 738.599" stroke="#B76C4E" stroke-width="5" stroke-miterlimit="10" stroke-linecap="round" stroke-linejoin="round"/>
<path d="M34.7201 151.866L8.93152 127.595" stroke="#B76C4E" stroke-width="5" stroke-miterlimit="10" stroke-linecap="round" stroke-linejoin="round"/>
<path d="M9.7735 152.541L33.8766 126.921" stroke="#B76C4E" stroke-width="5" stroke-miterlimit="10" stroke-linecap="round" stroke-linejoin="round"/>
<path d="M988.768 151.866L962.98 127.595" stroke="#B76C4E" stroke-width="5" stroke-miterlimit="10" stroke-linecap="round" stroke-linejoin="round"/>
<path d="M963.822 152.541L987.925 126.921" stroke="#B76C4E" stroke-width="5" stroke-miterlimit="10" stroke-linecap="round" stroke-linejoin="round"/>
<path d="M948.952 186.42L923.332 162.317" stroke="#B76C4E" stroke-width="5" stroke-miterlimit="10" stroke-linecap="round" stroke-linejoin="round"/>
<path d="M924.007 187.094L948.11 161.474" stroke="#B76C4E" stroke-width="5" stroke-miterlimit="10" stroke-linecap="round" stroke-linejoin="round"/>
<path d="M1903 186.42L1877.38 162.317" stroke="#B76C4E" stroke-width="5" stroke-miterlimit="10" stroke-linecap="round" stroke-linejoin="round"/>
<path d="M1878.06 187.094L1902.16 161.474" stroke="#B76C4E" stroke-width="5" stroke-miterlimit="10" stroke-linecap="round" stroke-linejoin="round"/>
<path d="M645.724 317.554L619.935 293.451" stroke="#B76C4E" stroke-width="5" stroke-miterlimit="10" stroke-linecap="round" stroke-linejoin="round"/>
<path d="M620.777 318.228L644.88 292.608" stroke="#B76C4E" stroke-width="5" stroke-miterlimit="10" stroke-linecap="round" stroke-linejoin="round"/>
<path d="M1599.77 317.554L1573.98 293.451" stroke="#B76C4E" stroke-width="5" stroke-miterlimit="10" stroke-linecap="round" stroke-linejoin="round"/>
<path d="M1574.83 318.228L1598.93 292.608" stroke="#B76C4E" stroke-width="5" stroke-miterlimit="10" stroke-linecap="round" stroke-linejoin="round"/>
<path d="M770.961 603.757L745.341 579.654" stroke="#B76C4E" stroke-width="5" stroke-miterlimit="10" stroke-linecap="round" stroke-linejoin="round"/>
<path d="M746.183 604.6L770.286 578.811" stroke="#B76C4E" stroke-width="5" stroke-miterlimit="10" stroke-linecap="round" stroke-linejoin="round"/>
<path d="M1725.01 603.757L1699.39 579.654" stroke="#B76C4E" stroke-width="5" stroke-miterlimit="10" stroke-linecap="round" stroke-linejoin="round"/>
<path d="M1700.23 604.6L1724.33 578.811" stroke="#B76C4E" stroke-width="5" stroke-miterlimit="10" stroke-linecap="round" stroke-linejoin="round"/>
<path d="M751.07 836.866L725.281 812.763" stroke="#B76C4E" stroke-width="5" stroke-miterlimit="10" stroke-linecap="round" stroke-linejoin="round"/>
<path d="M726.123 837.709L750.226 811.92" stroke="#B76C4E" stroke-width="5" stroke-miterlimit="10" stroke-linecap="round" stroke-linejoin="round"/>
<path d="M1705.12 836.866L1679.33 812.763" stroke="#B76C4E" stroke-width="5" stroke-miterlimit="10" stroke-linecap="round" stroke-linejoin="round"/>
<path d="M1680.17 837.709L1704.27 811.92" stroke="#B76C4E" stroke-width="5" stroke-miterlimit="10" stroke-linecap="round" stroke-linejoin="round"/>
<path d="M520.082 225.381L502.431 195.194L485.114 225.381L467.63 255.735H502.598H537.566L520.082 225.381Z" stroke="#B76C4E" stroke-width="5" stroke-miterlimit="10" stroke-linecap="round" stroke-linejoin="round"/>
<path d="M1474.13 225.381L1456.48 195.194L1439.16 225.381L1421.68 255.735H1456.65H1491.61L1474.13 225.381Z" stroke="#B76C4E" stroke-width="5" stroke-miterlimit="10" stroke-linecap="round" stroke-linejoin="round"/>
<path d="M461.586 599.588L444.061 568.88L426.702 599.588L409.176 630.465H444.227H479.112L461.586 599.588Z" stroke="#B76C4E" stroke-width="5" stroke-miterlimit="10" stroke-linecap="round" stroke-linejoin="round"/>
<path d="M1415.63 599.588L1398.11 568.88L1380.75 599.588L1363.22 630.465H1398.28H1433.16L1415.63 599.588Z" stroke="#B76C4E" stroke-width="5" stroke-miterlimit="10" stroke-linecap="round" stroke-linejoin="round"/>
<path d="M664.911 714.493L647.166 683.7L629.422 714.493L611.677 745.285H647.166H682.656L664.911 714.493Z" stroke="#B76C4E" stroke-width="5" stroke-miterlimit="10" stroke-linecap="round" stroke-linejoin="round"/>
<path d="M1618.96 714.493L1601.21 683.7L1583.47 714.493L1565.73 745.285H1601.21H1636.7L1618.96 714.493Z" stroke="#B76C4E" stroke-width="5" stroke-miterlimit="10" stroke-linecap="round" stroke-linejoin="round"/>
<path d="M781.123 479.718L790.169 445.71L756.329 454.924L722.321 463.97L747.115 488.764L772.076 513.558L781.123 479.718Z" stroke="#B76C4E" stroke-width="5" stroke-miterlimit="10" stroke-linecap="round" stroke-linejoin="round"/>
<path d="M1735.17 479.718L1744.22 445.71L1710.38 454.924L1676.37 463.97L1701.16 488.764L1726.12 513.558L1735.17 479.718Z" stroke="#B76C4E" stroke-width="5" stroke-miterlimit="10" stroke-linecap="round" stroke-linejoin="round"/>
<path d="M199.717 83.0673L208.763 49.0594L174.756 58.2734L140.915 67.3198L165.709 92.1137L190.671 116.908L199.717 83.0673Z" stroke="#B76C4E" stroke-width="5" stroke-miterlimit="10" stroke-linecap="round" stroke-linejoin="round"/>
<path d="M1153.77 83.0673L1162.81 49.0594L1128.8 58.2734L1094.96 67.3198L1119.76 92.1137L1144.72 116.908L1153.77 83.0673Z" stroke="#B76C4E" stroke-width="5" stroke-miterlimit="10" stroke-linecap="round" stroke-linejoin="round"/>
<path d="M175.709 820.962L184.756 787.038L150.915 796.229L116.907 805.253L141.869 829.986L166.663 854.886L175.709 820.962Z" stroke="#B76C4E" stroke-width="5" stroke-miterlimit="10" stroke-linecap="round" stroke-linejoin="round"/>
<path d="M1129.76 820.962L1138.8 787.038L1104.96 796.229L1070.96 805.253L1095.92 829.986L1120.71 854.886L1129.76 820.962Z" stroke="#B76C4E" stroke-width="5" stroke-miterlimit="10" stroke-linecap="round" stroke-linejoin="round"/>
<path d="M816.702 121.04L847.579 103.253L816.702 85.6354L785.994 67.8481V103.253V138.828L816.702 121.04Z" stroke="#B76C4E" stroke-width="5" stroke-miterlimit="10" stroke-linecap="round" stroke-linejoin="round"/>
<path d="M1770.75 121.04L1801.63 103.253L1770.75 85.6354L1740.04 67.8481V103.253V138.828L1770.75 121.04Z" stroke="#B76C4E" stroke-width="5" stroke-miterlimit="10" stroke-linecap="round" stroke-linejoin="round"/>
<path d="M174.755 474.937L205.632 457.192L174.755 439.447L144.047 421.702V457.192V492.682L174.755 474.937Z" stroke="#B76C4E" stroke-width="5" stroke-miterlimit="10" stroke-linecap="round" stroke-linejoin="round"/>
<path d="M1128.8 474.937L1159.68 457.192L1128.8 439.447L1098.1 421.702V457.192V492.682L1128.8 474.937Z" stroke="#B76C4E" stroke-width="5" stroke-miterlimit="10" stroke-linecap="round" stroke-linejoin="round"/>
<path d="M580.362 416.483C580.362 431.503 568.243 443.622 553.223 443.622C538.202 443.622 526.084 431.503 526.084 416.483C526.084 401.462 538.202 389.344 553.223 389.344C568.243 389.344 580.362 401.462 580.362 416.483Z" stroke="#B76C4E" stroke-width="5" stroke-miterlimit="10" stroke-linecap="round" stroke-linejoin="round"/>
<path d="M1534.41 416.483C1534.41 431.503 1522.29 443.622 1507.27 443.622C1492.25 443.622 1480.13 431.503 1480.13 416.483C1480.13 401.462 1492.25 389.344 1507.27 389.344C1522.29 389.344 1534.41 401.462 1534.41 416.483Z" stroke="#B76C4E" stroke-width="5" stroke-miterlimit="10" stroke-linecap="round" stroke-linejoin="round"/>
<path d="M444.666 117.429C444.666 132.161 432.547 144.047 417.527 144.047C402.506 144.047 390.387 132.161 390.387 117.429C390.387 102.698 402.506 90.812 417.527 90.812C432.547 90.812 444.666 102.865 444.666 117.429Z" stroke="#B76C4E" stroke-width="5" stroke-miterlimit="10" stroke-linecap="round" stroke-linejoin="round"/>
<path d="M1398.71 117.429C1398.71 132.161 1386.6 144.047 1371.58 144.047C1356.55 144.047 1344.44 132.161 1344.44 117.429C1344.44 102.698 1356.55 90.812 1371.58 90.812C1386.6 90.812 1398.71 102.865 1398.71 117.429Z" stroke="#B76C4E" stroke-width="5" stroke-miterlimit="10" stroke-linecap="round" stroke-linejoin="round"/>
<path d="M461.367 908.642C461.367 923.374 449.481 935.26 434.75 935.26C420.018 935.26 408.132 923.374 408.132 908.642C408.132 893.911 420.018 882.025 434.75 882.025C449.314 882.025 461.367 893.911 461.367 908.642Z" stroke="#B76C4E" stroke-width="5" stroke-miterlimit="10" stroke-linecap="round" stroke-linejoin="round"/>
<path d="M1415.42 908.642C1415.42 923.374 1403.53 935.26 1388.8 935.26C1374.07 935.26 1362.18 923.374 1362.18 908.642C1362.18 893.911 1374.07 882.025 1388.8 882.025C1403.36 882.025 1415.42 893.911 1415.42 908.642Z" stroke="#B76C4E" stroke-width="5" stroke-miterlimit="10" stroke-linecap="round" stroke-linejoin="round"/>
<path d="M533.39 868.456C533.39 854.013 545.276 842.36 560.008 842.36C574.739 842.36 586.625 854.013 586.625 868.456" stroke="#B76C4E" stroke-width="5" stroke-miterlimit="10" stroke-linecap="round" stroke-linejoin="round"/>
<path d="M1487.44 868.456C1487.44 854.013 1499.32 842.36 1514.06 842.36C1528.79 842.36 1540.67 854.013 1540.67 868.456" stroke="#B76C4E" stroke-width="5" stroke-miterlimit="10" stroke-linecap="round" stroke-linejoin="round"/>
<path d="M319.408 457.192C319.408 442.171 331.294 430.052 346.025 430.052C360.757 430.052 372.643 442.171 372.643 457.192" stroke="#B76C4E" stroke-width="5" stroke-miterlimit="10" stroke-linecap="round" stroke-linejoin="round"/>
<path d="M1273.46 457.192C1273.46 442.171 1285.34 430.052 1300.07 430.052C1314.81 430.052 1326.69 442.171 1326.69 457.192" stroke="#B76C4E" stroke-width="5" stroke-miterlimit="10" stroke-linecap="round" stroke-linejoin="round"/>
<path d="M37.5774 239.034C37.5774 224.014 49.5383 211.895 64.1947 211.895C78.8511 211.895 90.812 224.014 90.812 239.034" stroke="#B76C4E" stroke-width="5" stroke-miterlimit="10" stroke-linecap="round" stroke-linejoin="round"/>
<path d="M991.626 239.034C991.626 224.014 1003.59 211.895 1018.24 211.895C1032.9 211.895 1044.86 224.014 1044.86 239.034" stroke="#B76C4E" stroke-width="5" stroke-miterlimit="10" stroke-linecap="round" stroke-linejoin="round"/>
<path d="M712.927 282.874C698.484 282.874 686.831 270.913 686.831 256.257C686.831 241.601 698.484 229.64 712.927 229.64" stroke="#B76C4E" stroke-width="5" stroke-miterlimit="10" stroke-linecap="round" stroke-linejoin="round"/>
<path d="M1666.98 282.874C1652.53 282.874 1640.88 270.913 1640.88 256.257C1640.88 241.601 1652.53 229.64 1666.98 229.64" stroke="#B76C4E" stroke-width="5" stroke-miterlimit="10" stroke-linecap="round" stroke-linejoin="round"/>
<path d="M66.8043 909.164C52.3615 909.164 40.7089 896.969 40.7089 882.025C40.7089 867.082 52.3615 854.886 66.8043 854.886" stroke="#B76C4E" stroke-width="5" stroke-miterlimit="10" stroke-linecap="round" stroke-linejoin="round"/>
<path d="M1020.85 909.164C1006.41 909.164 994.757 896.969 994.757 882.025C994.757 867.082 1006.41 854.886 1020.85 854.886" stroke="#B76C4E" stroke-width="5" stroke-miterlimit="10" stroke-linecap="round" stroke-linejoin="round"/>
<path d="M354.898 55.3223C340.455 55.3223 328.802 43.3614 328.802 28.705C328.802 14.0486 340.455 2.08765 354.898 2.08765" stroke="#B76C4E" stroke-width="5" stroke-miterlimit="10" stroke-linecap="round" stroke-linejoin="round"/>
<path d="M1308.95 55.3223C1294.5 55.3223 1282.85 43.3614 1282.85 28.705C1282.85 14.0486 1294.5 2.08765 1308.95 2.08765" stroke="#B76C4E" stroke-width="5" stroke-miterlimit="10" stroke-linecap="round" stroke-linejoin="round"/>
<path d="M80.3739 626.812C80.3739 641.544 68.4882 653.429 53.7566 653.429C39.025 653.429 27.1392 641.544 27.1392 626.812C27.1392 612.08 39.025 600.195 53.7566 600.195C68.4882 600.195 80.3739 612.08 80.3739 626.812Z" stroke="#B76C4E" stroke-width="5" stroke-miterlimit="10" stroke-linecap="round" stroke-linejoin="round"/>
<path d="M1034.42 626.812C1034.42 641.544 1022.54 653.429 1007.81 653.429C993.074 653.429 981.188 641.544 981.188 626.812C981.188 612.08 993.074 600.195 1007.81 600.195C1022.54 600.195 1034.42 612.08 1034.42 626.812Z" stroke="#B76C4E" stroke-width="5" stroke-miterlimit="10" stroke-linecap="round" stroke-linejoin="round"/>
<path d="M908.121 657.083C908.121 671.814 896.002 683.7 880.981 683.7C865.961 683.7 853.842 671.814 853.842 657.083C853.842 642.351 865.961 630.465 880.981 630.465C896.002 630.465 908.121 642.351 908.121 657.083Z" stroke="#B76C4E" stroke-width="5" stroke-miterlimit="10" stroke-linecap="round" stroke-linejoin="round"/>
<path d="M1862.17 657.083C1862.17 671.814 1850.05 683.7 1835.03 683.7C1820.01 683.7 1807.89 671.814 1807.89 657.083C1807.89 642.351 1820.01 630.465 1835.03 630.465C1850.05 630.465 1862.17 642.351 1862.17 657.083Z" stroke="#B76C4E" stroke-width="5" stroke-miterlimit="10" stroke-linecap="round" stroke-linejoin="round"/>
<path d="M887.244 229.64H834.01V282.874H887.244V229.64Z" stroke="#B76C4E" stroke-width="5" stroke-miterlimit="10" stroke-linecap="round" stroke-linejoin="round"/>
<path d="M1841.29 229.64H1788.06V282.874H1841.29V229.64Z" stroke="#B76C4E" stroke-width="5" stroke-miterlimit="10" stroke-linecap="round" stroke-linejoin="round"/>
<path d="M283.918 255.735H230.684V310.014H283.918V255.735Z" stroke="#B76C4E" stroke-width="5" stroke-miterlimit="10" stroke-linecap="round" stroke-linejoin="round"/>
<path d="M1237.97 255.735H1184.73V310.014H1237.97V255.735Z" stroke="#B76C4E" stroke-width="5" stroke-miterlimit="10" stroke-linecap="round" stroke-linejoin="round"/>
<path d="M280.787 597.063H227.552V650.298H280.787V597.063Z" stroke="#B76C4E" stroke-width="5" stroke-miterlimit="10" stroke-linecap="round" stroke-linejoin="round"/>
<path d="M1234.84 597.063H1181.6V650.298H1234.84V597.063Z" stroke="#B76C4E" stroke-width="5" stroke-miterlimit="10" stroke-linecap="round" stroke-linejoin="round"/>
<path d="M887.244 854.886H834.01V909.164H887.244V854.886Z" stroke="#B76C4E" stroke-width="5" stroke-miterlimit="10" stroke-linecap="round" stroke-linejoin="round"/>
<path d="M1841.29 854.886H1788.06V909.164H1841.29V854.886Z" stroke="#B76C4E" stroke-width="5" stroke-miterlimit="10" stroke-linecap="round" stroke-linejoin="round"/>
<path d="M665.955 2.08765H612.72V55.3223H665.955V2.08765Z" stroke="#B76C4E" stroke-width="5" stroke-miterlimit="10" stroke-linecap="round" stroke-linejoin="round"/>
<path d="M1620 2.08765H1566.77V55.3223H1620V2.08765Z" stroke="#B76C4E" stroke-width="5" stroke-miterlimit="10" stroke-linecap="round" stroke-linejoin="round"/>
<path d="M535.66 544.763C524.03 544.763 526.052 524.031 511.219 524.031" stroke="#B76C4E" stroke-width="5" stroke-miterlimit="10" stroke-linecap="round" stroke-linejoin="round"/>
<path d="M584.71 544.763C573.079 544.763 575.102 524.031 560.269 524.031" stroke="#B76C4E" stroke-width="5" stroke-miterlimit="10" stroke-linecap="round" stroke-linejoin="round"/>
<path d="M535.66 544.763C547.29 544.763 545.268 524.031 560.1 524.031" stroke="#B76C4E" stroke-width="5" stroke-miterlimit="10" stroke-linecap="round" stroke-linejoin="round"/>
<path d="M584.709 544.763C596.34 544.763 594.317 524.031 609.15 524.031" stroke="#B76C4E" stroke-width="5" stroke-miterlimit="10" stroke-linecap="round" stroke-linejoin="round"/>
<path d="M1489.71 544.763C1478.08 544.763 1480.1 524.031 1465.27 524.031" stroke="#B76C4E" stroke-width="5" stroke-miterlimit="10" stroke-linecap="round" stroke-linejoin="round"/>
<path d="M1538.76 544.763C1527.13 544.763 1529.15 524.031 1514.32 524.031" stroke="#B76C4E" stroke-width="5" stroke-miterlimit="10" stroke-linecap="round" stroke-linejoin="round"/>
<path d="M1489.71 544.763C1501.34 544.763 1499.32 524.031 1514.15 524.031" stroke="#B76C4E" stroke-width="5" stroke-miterlimit="10" stroke-linecap="round" stroke-linejoin="round"/>
<path d="M1538.76 544.763C1550.39 544.763 1548.37 524.031 1563.2 524.031" stroke="#B76C4E" stroke-width="5" stroke-miterlimit="10" stroke-linecap="round" stroke-linejoin="round"/>
<path d="M675.223 929.57C663.593 929.57 665.616 908.838 650.783 908.838" stroke="#B76C4E" stroke-width="5" stroke-miterlimit="10" stroke-linecap="round" stroke-linejoin="round"/>
<path d="M724.272 929.57C712.642 929.57 714.665 908.838 699.832 908.838" stroke="#B76C4E" stroke-width="5" stroke-miterlimit="10" stroke-linecap="round" stroke-linejoin="round"/>
<path d="M675.223 929.57C686.853 929.57 684.83 908.838 699.663 908.838" stroke="#B76C4E" stroke-width="5" stroke-miterlimit="10" stroke-linecap="round" stroke-linejoin="round"/>
<path d="M724.272 929.57C735.902 929.57 733.88 908.838 748.712 908.838" stroke="#B76C4E" stroke-width="5" stroke-miterlimit="10" stroke-linecap="round" stroke-linejoin="round"/>
<path d="M1629.27 929.57C1617.64 929.57 1619.66 908.838 1604.83 908.838" stroke="#B76C4E" stroke-width="5" stroke-miterlimit="10" stroke-linecap="round" stroke-linejoin="round"/>
<path d="M1678.32 929.57C1666.69 929.57 1668.71 908.838 1653.88 908.838" stroke="#B76C4E" stroke-width="5" stroke-miterlimit="10" stroke-linecap="round" stroke-linejoin="round"/>
<path d="M1629.27 929.57C1640.9 929.57 1638.88 908.838 1653.71 908.838" stroke="#B76C4E" stroke-width="5" stroke-miterlimit="10" stroke-linecap="round" stroke-linejoin="round"/>
<path d="M1678.32 929.57C1689.95 929.57 1687.93 908.838 1702.76 908.838" stroke="#B76C4E" stroke-width="5" stroke-miterlimit="10" stroke-linecap="round" stroke-linejoin="round"/>
<path d="M742.138 374.862C730.507 374.862 732.53 354.13 717.697 354.13" stroke="#B76C4E" stroke-width="5" stroke-miterlimit="10" stroke-linecap="round" stroke-linejoin="round"/>
<path d="M791.018 374.862C779.388 374.862 781.41 354.13 766.578 354.13" stroke="#B76C4E" stroke-width="5" stroke-miterlimit="10" stroke-linecap="round" stroke-linejoin="round"/>
<path d="M742.138 374.862C753.768 374.862 751.745 354.13 766.578 354.13" stroke="#B76C4E" stroke-width="5" stroke-miterlimit="10" stroke-linecap="round" stroke-linejoin="round"/>
<path d="M791.018 374.862C802.648 374.862 800.625 354.13 815.458 354.13" stroke="#B76C4E" stroke-width="5" stroke-miterlimit="10" stroke-linecap="round" stroke-linejoin="round"/>
<path d="M1696.19 374.862C1684.56 374.862 1686.58 354.13 1671.75 354.13" stroke="#B76C4E" stroke-width="5" stroke-miterlimit="10" stroke-linecap="round" stroke-linejoin="round"/>
<path d="M1745.07 374.862C1733.44 374.862 1735.46 354.13 1720.63 354.13" stroke="#B76C4E" stroke-width="5" stroke-miterlimit="10" stroke-linecap="round" stroke-linejoin="round"/>
<path d="M1696.19 374.862C1707.82 374.862 1705.79 354.13 1720.63 354.13" stroke="#B76C4E" stroke-width="5" stroke-miterlimit="10" stroke-linecap="round" stroke-linejoin="round"/>
<path d="M1745.07 374.862C1756.7 374.862 1754.67 354.13 1769.51 354.13" stroke="#B76C4E" stroke-width="5" stroke-miterlimit="10" stroke-linecap="round" stroke-linejoin="round"/>
<path d="M60.6782 349.916C49.048 349.916 51.0706 329.184 36.238 329.184" stroke="#B76C4E" stroke-width="5" stroke-miterlimit="10" stroke-linecap="round" stroke-linejoin="round"/>
<path d="M109.558 349.916C97.9277 349.916 99.9503 329.184 85.1177 329.184" stroke="#B76C4E" stroke-width="5" stroke-miterlimit="10" stroke-linecap="round" stroke-linejoin="round"/>
<path d="M60.6777 349.916C72.3078 349.916 70.2852 329.184 85.1179 329.184" stroke="#B76C4E" stroke-width="5" stroke-miterlimit="10" stroke-linecap="round" stroke-linejoin="round"/>
<path d="M109.558 349.916C121.188 349.916 119.165 329.184 133.998 329.184" stroke="#B76C4E" stroke-width="5" stroke-miterlimit="10" stroke-linecap="round" stroke-linejoin="round"/>
<path d="M1014.73 349.916C1003.1 349.916 1005.12 329.184 990.287 329.184" stroke="#B76C4E" stroke-width="5" stroke-miterlimit="10" stroke-linecap="round" stroke-linejoin="round"/>
<path d="M1063.61 349.916C1051.98 349.916 1054 329.184 1039.17 329.184" stroke="#B76C4E" stroke-width="5" stroke-miterlimit="10" stroke-linecap="round" stroke-linejoin="round"/>
<path d="M1014.73 349.916C1026.36 349.916 1024.33 329.184 1039.17 329.184" stroke="#B76C4E" stroke-width="5" stroke-miterlimit="10" stroke-linecap="round" stroke-linejoin="round"/>
<path d="M1063.61 349.916C1075.24 349.916 1073.21 329.184 1088.05 329.184" stroke="#B76C4E" stroke-width="5" stroke-miterlimit="10" stroke-linecap="round" stroke-linejoin="round"/>
<path d="M539.705 73.3206C539.705 84.9507 518.973 82.9281 518.973 97.7607" stroke="#B76C4E" stroke-width="5" stroke-miterlimit="10" stroke-linecap="round" stroke-linejoin="round"/>
<path d="M539.705 24.4402C539.705 36.0703 518.973 34.0477 518.973 48.8804" stroke="#B76C4E" stroke-width="5" stroke-miterlimit="10" stroke-linecap="round" stroke-linejoin="round"/>
<path d="M539.705 73.3206C539.705 61.6904 518.973 63.713 518.973 48.8804" stroke="#B76C4E" stroke-width="5" stroke-miterlimit="10" stroke-linecap="round" stroke-linejoin="round"/>
<path d="M539.705 24.4402C539.705 12.81 518.973 14.8327 518.973 0" stroke="#B76C4E" stroke-width="5" stroke-miterlimit="10" stroke-linecap="round" stroke-linejoin="round"/>
<path d="M1493.75 73.3206C1493.75 84.9507 1473.02 82.9281 1473.02 97.7607" stroke="#B76C4E" stroke-width="5" stroke-miterlimit="10" stroke-linecap="round" stroke-linejoin="round"/>
<path d="M1493.75 24.4402C1493.75 36.0703 1473.02 34.0477 1473.02 48.8804" stroke="#B76C4E" stroke-width="5" stroke-miterlimit="10" stroke-linecap="round" stroke-linejoin="round"/>
<path d="M1493.75 73.3206C1493.75 61.6904 1473.02 63.713 1473.02 48.8804" stroke="#B76C4E" stroke-width="5" stroke-miterlimit="10" stroke-linecap="round" stroke-linejoin="round"/>
<path d="M1493.75 24.4402C1493.75 12.81 1473.02 14.8327 1473.02 0" stroke="#B76C4E" stroke-width="5" stroke-miterlimit="10" stroke-linecap="round" stroke-linejoin="round"/>
<path d="M389.524 329.689C389.524 341.32 368.792 339.297 368.792 354.13" stroke="#B76C4E" stroke-width="5" stroke-miterlimit="10" stroke-linecap="round" stroke-linejoin="round"/>
<path d="M389.524 280.641C389.524 292.271 368.792 290.248 368.792 305.081" stroke="#B76C4E" stroke-width="5" stroke-miterlimit="10" stroke-linecap="round" stroke-linejoin="round"/>
<path d="M389.524 329.69C389.524 318.059 368.792 320.082 368.792 305.249" stroke="#B76C4E" stroke-width="5" stroke-miterlimit="10" stroke-linecap="round" stroke-linejoin="round"/>
<path d="M389.524 280.641C389.524 269.01 368.792 271.033 368.792 256.2" stroke="#B76C4E" stroke-width="5" stroke-miterlimit="10" stroke-linecap="round" stroke-linejoin="round"/>
<path d="M1343.57 329.689C1343.57 341.32 1322.84 339.297 1322.84 354.13" stroke="#B76C4E" stroke-width="5" stroke-miterlimit="10" stroke-linecap="round" stroke-linejoin="round"/>
<path d="M1343.57 280.641C1343.57 292.271 1322.84 290.248 1322.84 305.081" stroke="#B76C4E" stroke-width="5" stroke-miterlimit="10" stroke-linecap="round" stroke-linejoin="round"/>
<path d="M1343.57 329.69C1343.57 318.059 1322.84 320.082 1322.84 305.249" stroke="#B76C4E" stroke-width="5" stroke-miterlimit="10" stroke-linecap="round" stroke-linejoin="round"/>
<path d="M1343.57 280.641C1343.57 269.01 1322.84 271.033 1322.84 256.2" stroke="#B76C4E" stroke-width="5" stroke-miterlimit="10" stroke-linecap="round" stroke-linejoin="round"/>
<path d="M796.748 739.105C796.748 750.735 776.016 748.712 776.016 763.545" stroke="#B76C4E" stroke-width="5" stroke-miterlimit="10" stroke-linecap="round" stroke-linejoin="round"/>
<path d="M796.748 690.225C796.748 701.855 776.016 699.832 776.016 714.665" stroke="#B76C4E" stroke-width="5" stroke-miterlimit="10" stroke-linecap="round" stroke-linejoin="round"/>
<path d="M796.748 739.105C796.748 727.475 776.016 729.497 776.016 714.665" stroke="#B76C4E" stroke-width="5" stroke-miterlimit="10" stroke-linecap="round" stroke-linejoin="round"/>
<path d="M796.747 690.225C796.747 678.594 776.015 680.617 776.015 665.784" stroke="#B76C4E" stroke-width="5" stroke-miterlimit="10" stroke-linecap="round" stroke-linejoin="round"/>
<path d="M1750.8 739.105C1750.8 750.735 1730.06 748.712 1730.06 763.545" stroke="#B76C4E" stroke-width="5" stroke-miterlimit="10" stroke-linecap="round" stroke-linejoin="round"/>
<path d="M1750.8 690.225C1750.8 701.855 1730.06 699.832 1730.06 714.665" stroke="#B76C4E" stroke-width="5" stroke-miterlimit="10" stroke-linecap="round" stroke-linejoin="round"/>
<path d="M1750.8 739.105C1750.8 727.475 1730.06 729.497 1730.06 714.665" stroke="#B76C4E" stroke-width="5" stroke-miterlimit="10" stroke-linecap="round" stroke-linejoin="round"/>
<path d="M1750.8 690.225C1750.8 678.594 1730.06 680.617 1730.06 665.784" stroke="#B76C4E" stroke-width="5" stroke-miterlimit="10" stroke-linecap="round" stroke-linejoin="round"/>
<path d="M291.427 777.872C291.427 789.502 270.695 787.48 270.695 802.312" stroke="#B76C4E" stroke-width="5" stroke-miterlimit="10" stroke-linecap="round" stroke-linejoin="round"/>
<path d="M291.427 728.823C291.427 740.453 270.695 738.431 270.695 753.263" stroke="#B76C4E" stroke-width="5" stroke-miterlimit="10" stroke-linecap="round" stroke-linejoin="round"/>
<path d="M291.427 777.872C291.427 766.242 270.695 768.265 270.695 753.432" stroke="#B76C4E" stroke-width="5" stroke-miterlimit="10" stroke-linecap="round" stroke-linejoin="round"/>
<path d="M291.427 728.823C291.427 717.193 270.695 719.216 270.695 704.383" stroke="#B76C4E" stroke-width="5" stroke-miterlimit="10" stroke-linecap="round" stroke-linejoin="round"/>
<path d="M1245.48 777.872C1245.48 789.502 1224.74 787.48 1224.74 802.312" stroke="#B76C4E" stroke-width="5" stroke-miterlimit="10" stroke-linecap="round" stroke-linejoin="round"/>
<path d="M1245.48 728.823C1245.48 740.453 1224.74 738.431 1224.74 753.263" stroke="#B76C4E" stroke-width="5" stroke-miterlimit="10" stroke-linecap="round" stroke-linejoin="round"/>
<path d="M1245.48 777.872C1245.48 766.242 1224.74 768.265 1224.74 753.432" stroke="#B76C4E" stroke-width="5" stroke-miterlimit="10" stroke-linecap="round" stroke-linejoin="round"/>
<path d="M1245.48 728.823C1245.48 717.193 1224.74 719.216 1224.74 704.383" stroke="#B76C4E" stroke-width="5" stroke-miterlimit="10" stroke-linecap="round" stroke-linejoin="round"/>
<path d="M593.932 600.195H654.473" stroke="#B76C4E" stroke-width="5" stroke-miterlimit="10" stroke-linecap="round" stroke-linejoin="round"/>
<path d="M1547.98 600.195H1608.52" stroke="#B76C4E" stroke-width="5" stroke-miterlimit="10" stroke-linecap="round" stroke-linejoin="round"/>
<path d="M0 424.833H60.5414" stroke="#B76C4E" stroke-width="5" stroke-miterlimit="10" stroke-linecap="round" stroke-linejoin="round"/>
<path d="M954.049 424.833H1014.59" stroke="#B76C4E" stroke-width="5" stroke-miterlimit="10" stroke-linecap="round" stroke-linejoin="round"/>
<path d="M599.151 144.047H659.692" stroke="#B76C4E" stroke-width="5" stroke-miterlimit="10" stroke-linecap="round" stroke-linejoin="round"/>
<path d="M1553.2 144.047H1613.74" stroke="#B76C4E" stroke-width="5" stroke-miterlimit="10" stroke-linecap="round" stroke-linejoin="round"/>
<path d="M241.122 909.164H301.663" stroke="#B76C4E" stroke-width="5" stroke-miterlimit="10" stroke-linecap="round" stroke-linejoin="round"/>
<path d="M1195.17 909.164H1255.71" stroke="#B76C4E" stroke-width="5" stroke-miterlimit="10" stroke-linecap="round" stroke-linejoin="round"/>
<path d="M396.65 792.257L439.447 749.46" stroke="#B76C4E" stroke-width="5" stroke-miterlimit="10" stroke-linecap="round" stroke-linejoin="round"/>
<path d="M1350.7 792.257L1393.5 749.46" stroke="#B76C4E" stroke-width="5" stroke-miterlimit="10" stroke-linecap="round" stroke-linejoin="round"/>
<path d="M42.7965 50.1033L85.593 7.30676" stroke="#B76C4E" stroke-width="5" stroke-miterlimit="10" stroke-linecap="round" stroke-linejoin="round"/>
<path d="M996.845 50.1033L1039.64 7.30676" stroke="#B76C4E" stroke-width="5" stroke-miterlimit="10" stroke-linecap="round" stroke-linejoin="round"/>
<path d="M867.412 488.506L910.208 445.71" stroke="#B76C4E" stroke-width="5" stroke-miterlimit="10" stroke-linecap="round" stroke-linejoin="round"/>
<path d="M1821.46 488.506L1864.26 445.71" stroke="#B76C4E" stroke-width="5" stroke-miterlimit="10" stroke-linecap="round" stroke-linejoin="round"/>
<g opacity="0.3">
<path opacity="0.3" d="M558.75 248.11L541.052 217.433L523.354 248.11L505.656 278.787H541.052L576.448 278.618L558.75 248.11Z" stroke="#B76C4E" stroke-miterlimit="10"/>
<path opacity="0.3" d="M500.095 622.298L482.397 591.621L464.867 622.298L447.169 652.974H482.565L517.793 652.806L500.095 622.298Z" stroke="#B76C4E" stroke-miterlimit="10"/>
<path opacity="0.3" d="M703.033 737.251L685.335 706.574L667.637 737.251L649.939 767.759H685.335H720.731L703.033 737.251Z" stroke="#B76C4E" stroke-miterlimit="10"/>
<path opacity="0.3" d="M819.672 502.12L828.774 468.072L794.726 477.174L760.51 486.444L785.624 511.39L810.57 536.336L819.672 502.12Z" stroke="#B76C4E" stroke-miterlimit="10"/>
<path opacity="0.3" d="M238.331 105.514L247.433 71.4664L213.386 80.5683L179.169 89.8387L204.115 114.785L229.23 139.73L238.331 105.514Z" stroke="#B76C4E" stroke-miterlimit="10"/>
<path opacity="0.3" d="M214.059 843.776L223.161 809.56L189.113 818.662L154.897 827.932L180.011 852.878L204.957 877.824L214.059 843.776Z" stroke="#B76C4E" stroke-miterlimit="10"/>
<path opacity="0.3" d="M855.571 143.776L886.079 126.078L855.571 108.38L824.894 90.6816V126.078V161.474L855.571 143.776Z" stroke="#B76C4E" stroke-miterlimit="10"/>
<path opacity="0.3" d="M213.385 496.894L243.893 479.196L213.217 461.667L182.708 443.969V479.365V514.592L213.385 496.894Z" stroke="#B76C4E" stroke-miterlimit="10"/>
<path opacity="0.3" d="M618.419 439.081C618.419 453.913 606.451 465.881 591.619 465.881C576.786 465.881 564.819 453.913 564.819 439.081C564.819 424.248 576.786 412.281 591.619 412.281C606.451 412.281 618.419 424.248 618.419 439.081Z" stroke="#B76C4E" stroke-miterlimit="10"/>
<path opacity="0.3" d="M482.902 139.731C482.902 154.563 470.935 166.531 456.102 166.531C441.269 166.531 429.302 154.563 429.302 139.731C429.302 124.898 441.269 112.931 456.102 112.931C470.935 112.931 482.902 124.898 482.902 139.731Z" stroke="#B76C4E" stroke-miterlimit="10"/>
<path opacity="0.3" d="M500.094 931.424C500.094 946.257 488.127 958.224 473.294 958.224C458.462 958.224 446.495 946.257 446.495 931.424C446.495 916.591 458.462 904.624 473.294 904.624C487.959 904.455 500.094 916.591 500.094 931.424Z" stroke="#B76C4E" stroke-miterlimit="10"/>
<path opacity="0.3" d="M571.73 891.308C571.73 876.476 583.697 864.508 598.53 864.508C613.363 864.508 625.33 876.476 625.33 891.308" stroke="#B76C4E" stroke-miterlimit="10"/>
<path opacity="0.3" d="M357.668 479.365C357.668 464.532 369.635 452.565 384.468 452.565C399.301 452.565 411.268 464.532 411.268 479.365" stroke="#B76C4E" stroke-miterlimit="10"/>
<path opacity="0.3" d="M75.5094 261.594C75.5094 246.762 87.4767 234.794 102.141 234.794C116.805 234.794 128.772 246.762 128.772 261.594" stroke="#B76C4E" stroke-miterlimit="10"/>
<path opacity="0.3" d="M751.573 305.418C736.741 305.418 724.773 293.451 724.773 278.787C724.773 264.123 736.741 252.155 751.573 252.155" stroke="#B76C4E" stroke-miterlimit="10"/>
<path opacity="0.3" d="M105.679 931.255C90.8466 931.255 78.8793 919.288 78.8793 904.624C78.8793 889.96 90.8466 877.993 105.679 877.993" stroke="#B76C4E" stroke-miterlimit="10"/>
<path opacity="0.3" d="M393.571 78.2087C378.738 78.2087 366.771 66.2414 366.771 51.5773C366.771 36.9132 378.738 24.9459 393.571 24.9459" stroke="#B76C4E" stroke-miterlimit="10"/>
<path opacity="0.3" d="M119.164 649.098C119.164 663.93 107.197 675.898 92.3645 675.898C77.5318 675.898 65.5646 663.93 65.5646 649.098C65.5646 634.265 77.5318 622.298 92.3645 622.298C107.197 622.298 119.164 634.265 119.164 649.098Z" stroke="#B76C4E" stroke-miterlimit="10"/>
<path opacity="0.3" d="M946.255 679.774C946.255 694.607 934.287 706.574 919.455 706.574C904.622 706.574 892.655 694.607 892.655 679.774C892.655 664.942 904.622 652.974 919.455 652.974C934.287 652.974 946.255 664.942 946.255 679.774Z" stroke="#B76C4E" stroke-miterlimit="10"/>
<path opacity="0.3" d="M925.522 251.987H872.09V305.418H925.522V251.987Z" stroke="#B76C4E" stroke-miterlimit="10"/>
<path opacity="0.3" d="M322.269 278.787H268.838V332.218H322.269V278.787Z" stroke="#B76C4E" stroke-miterlimit="10"/>
<path opacity="0.3" d="M319.574 619.432H266.143V672.864H319.574V619.432Z" stroke="#B76C4E" stroke-miterlimit="10"/>
<path opacity="0.3" d="M925.522 877.824H872.09V931.255H925.522V877.824Z" stroke="#B76C4E" stroke-miterlimit="10"/>
<path opacity="0.3" d="M704.212 24.7773H650.781V78.2086H704.212V24.7773Z" stroke="#B76C4E" stroke-miterlimit="10"/>
<g opacity="0.3">
<path opacity="0.3" d="M574.091 567.349C562.461 567.349 564.484 546.617 549.651 546.617" stroke="#B76C4E" stroke-miterlimit="10"/>
<path opacity="0.3" d="M623.139 567.349C611.509 567.349 613.531 546.617 598.699 546.617" stroke="#B76C4E" stroke-miterlimit="10"/>
<path opacity="0.3" d="M574.092 567.349C585.722 567.349 583.699 546.617 598.532 546.617" stroke="#B76C4E" stroke-miterlimit="10"/>
<path opacity="0.3" d="M623.139 567.349C634.769 567.349 632.746 546.617 647.579 546.617" stroke="#B76C4E" stroke-miterlimit="10"/>
</g>
<g opacity="0.3">
<path opacity="0.3" d="M713.65 951.987C702.02 951.987 704.043 931.255 689.21 931.255" stroke="#B76C4E" stroke-miterlimit="10"/>
<path opacity="0.3" d="M762.699 951.987C751.069 951.987 753.092 931.255 738.259 931.255" stroke="#B76C4E" stroke-miterlimit="10"/>
<path opacity="0.3" d="M713.65 951.987C725.28 951.987 723.257 931.255 738.09 931.255" stroke="#B76C4E" stroke-miterlimit="10"/>
<path opacity="0.3" d="M762.699 951.987C774.329 951.987 772.307 931.255 787.139 931.255" stroke="#B76C4E" stroke-miterlimit="10"/>
</g>
<g opacity="0.3">
<path opacity="0.3" d="M780.567 397.448C768.937 397.448 770.959 376.716 756.127 376.716" stroke="#B76C4E" stroke-miterlimit="10"/>
<path opacity="0.3" d="M829.447 397.448C817.817 397.448 819.839 376.716 805.007 376.716" stroke="#B76C4E" stroke-miterlimit="10"/>
<path opacity="0.3" d="M780.567 397.448C792.197 397.448 790.174 376.716 805.007 376.716" stroke="#B76C4E" stroke-miterlimit="10"/>
<path opacity="0.3" d="M829.447 397.448C841.077 397.448 839.054 376.716 853.887 376.716" stroke="#B76C4E" stroke-miterlimit="10"/>
</g>
<g opacity="0.3">
<path opacity="0.3" d="M99.1055 372.502C87.4754 372.502 89.498 351.77 74.6653 351.77" stroke="#B76C4E" stroke-miterlimit="10"/>
<path opacity="0.3" d="M148.152 372.502C136.522 372.502 138.545 351.77 123.712 351.77" stroke="#B76C4E" stroke-miterlimit="10"/>
<path opacity="0.3" d="M99.1049 372.502C110.735 372.502 108.712 351.77 123.545 351.77" stroke="#B76C4E" stroke-miterlimit="10"/>
<path opacity="0.3" d="M148.152 372.502C159.782 372.502 157.759 351.77 172.592 351.77" stroke="#B76C4E" stroke-miterlimit="10"/>
</g>
<g opacity="0.3">
<path opacity="0.3" d="M578.134 95.9066C578.134 107.537 557.402 105.514 557.402 120.347" stroke="#B76C4E" stroke-miterlimit="10"/>
<path opacity="0.3" d="M578.134 46.8578C578.134 58.4879 557.402 56.4653 557.402 71.298" stroke="#B76C4E" stroke-miterlimit="10"/>
<path opacity="0.3" d="M578.134 95.9066C578.134 84.2765 557.402 86.2991 557.402 71.4664" stroke="#B76C4E" stroke-miterlimit="10"/>
<path opacity="0.3" d="M578.134 46.8578C578.134 35.2276 557.402 37.2503 557.402 22.4176" stroke="#B76C4E" stroke-miterlimit="10"/>
</g>
<g opacity="0.3">
<path opacity="0.3" d="M427.955 352.276C427.955 363.906 407.223 361.883 407.223 376.716" stroke="#B76C4E" stroke-miterlimit="10"/>
<path opacity="0.3" d="M427.955 303.227C427.955 314.857 407.223 312.834 407.223 327.667" stroke="#B76C4E" stroke-miterlimit="10"/>
<path opacity="0.3" d="M427.955 352.276C427.955 340.645 407.223 342.668 407.223 327.835" stroke="#B76C4E" stroke-miterlimit="10"/>
<path opacity="0.3" d="M427.955 303.227C427.955 291.597 407.223 293.619 407.223 278.787" stroke="#B76C4E" stroke-miterlimit="10"/>
</g>
<g opacity="0.3">
<path opacity="0.3" d="M835.179 761.691C835.179 773.321 814.447 771.299 814.447 786.131" stroke="#B76C4E" stroke-miterlimit="10"/>
<path opacity="0.3" d="M835.179 712.642C835.179 724.272 814.447 722.25 814.447 737.082" stroke="#B76C4E" stroke-miterlimit="10"/>
<path opacity="0.3" d="M835.179 761.691C835.179 750.061 814.447 752.084 814.447 737.251" stroke="#B76C4E" stroke-miterlimit="10"/>
<path opacity="0.3" d="M835.178 712.642C835.178 701.012 814.446 703.035 814.446 688.202" stroke="#B76C4E" stroke-miterlimit="10"/>
</g>
<g opacity="0.3">
<path opacity="0.3" d="M329.854 800.29C329.854 811.92 309.122 809.897 309.122 824.73" stroke="#B76C4E" stroke-miterlimit="10"/>
<path opacity="0.3" d="M329.854 751.241C329.854 762.871 309.122 760.848 309.122 775.681" stroke="#B76C4E" stroke-miterlimit="10"/>
<path opacity="0.3" d="M329.854 800.29C329.854 788.66 309.122 790.682 309.122 775.849" stroke="#B76C4E" stroke-miterlimit="10"/>
<path opacity="0.3" d="M329.855 751.241C329.855 739.611 309.122 741.633 309.122 726.801" stroke="#B76C4E" stroke-miterlimit="10"/>
</g>
<path opacity="0.3" d="M632.744 622.298H693.255" stroke="#B76C4E" stroke-miterlimit="10"/>
<path opacity="0.3" d="M38.4274 447.508H98.9379" stroke="#B76C4E" stroke-miterlimit="10"/>
<path opacity="0.3" d="M637.297 166.53H697.807" stroke="#B76C4E" stroke-miterlimit="10"/>
<path opacity="0.3" d="M875.629 30.171H936.14" stroke="#B76C4E" stroke-miterlimit="10"/>
<path opacity="0.3" d="M279.457 931.255H339.968" stroke="#B76C4E" stroke-miterlimit="10"/>
<path opacity="0.3" d="M434.694 814.448L477.507 771.636" stroke="#B76C4E" stroke-miterlimit="10"/>
<path opacity="0.3" d="M80.9017 72.8149L123.546 30.171" stroke="#B76C4E" stroke-miterlimit="10"/>
<path opacity="0.3" d="M905.8 511.053L948.613 468.409" stroke="#B76C4E" stroke-miterlimit="10"/>
</g>
<g opacity="0.3">
<path opacity="0.3" d="M1512.8 248.11L1495.1 217.433L1477.4 248.11L1459.7 278.787H1495.1L1530.5 278.618L1512.8 248.11Z" stroke="#B76C4E" stroke-miterlimit="10"/>
<path opacity="0.3" d="M1454.14 622.298L1436.45 591.621L1418.92 622.298L1401.22 652.974H1436.61L1471.84 652.806L1454.14 622.298Z" stroke="#B76C4E" stroke-miterlimit="10"/>
<path opacity="0.3" d="M1657.08 737.251L1639.38 706.574L1621.69 737.251L1603.99 767.759H1639.38H1674.78L1657.08 737.251Z" stroke="#B76C4E" stroke-miterlimit="10"/>
<path opacity="0.3" d="M1773.72 502.12L1782.82 468.072L1748.77 477.174L1714.56 486.444L1739.67 511.39L1764.62 536.336L1773.72 502.12Z" stroke="#B76C4E" stroke-miterlimit="10"/>
<path opacity="0.3" d="M1192.38 105.514L1201.48 71.4664L1167.43 80.5683L1133.22 89.8387L1158.16 114.785L1183.28 139.73L1192.38 105.514Z" stroke="#B76C4E" stroke-miterlimit="10"/>
<path opacity="0.3" d="M1168.11 843.776L1177.21 809.56L1143.16 818.662L1108.94 827.932L1134.06 852.878L1159.01 877.824L1168.11 843.776Z" stroke="#B76C4E" stroke-miterlimit="10"/>
<path opacity="0.3" d="M1809.62 143.776L1840.13 126.078L1809.62 108.38L1778.94 90.6816V126.078V161.474L1809.62 143.776Z" stroke="#B76C4E" stroke-miterlimit="10"/>
<path opacity="0.3" d="M1167.43 496.894L1197.94 479.196L1167.26 461.667L1136.76 443.969V479.365V514.592L1167.43 496.894Z" stroke="#B76C4E" stroke-miterlimit="10"/>
<path opacity="0.3" d="M1572.47 439.081C1572.47 453.913 1560.5 465.881 1545.67 465.881C1530.83 465.881 1518.87 453.913 1518.87 439.081C1518.87 424.248 1530.83 412.281 1545.67 412.281C1560.5 412.281 1572.47 424.248 1572.47 439.081Z" stroke="#B76C4E" stroke-miterlimit="10"/>
<path opacity="0.3" d="M1436.95 139.731C1436.95 154.563 1424.98 166.531 1410.15 166.531C1395.32 166.531 1383.35 154.563 1383.35 139.731C1383.35 124.898 1395.32 112.931 1410.15 112.931C1424.98 112.931 1436.95 124.898 1436.95 139.731Z" stroke="#B76C4E" stroke-miterlimit="10"/>
<path opacity="0.3" d="M1454.14 931.424C1454.14 946.257 1442.18 958.224 1427.34 958.224C1412.51 958.224 1400.54 946.257 1400.54 931.424C1400.54 916.591 1412.51 904.624 1427.34 904.624C1442.01 904.455 1454.14 916.591 1454.14 931.424Z" stroke="#B76C4E" stroke-miterlimit="10"/>
<path opacity="0.3" d="M1525.78 891.308C1525.78 876.476 1537.75 864.508 1552.58 864.508C1567.41 864.508 1579.38 876.476 1579.38 891.308" stroke="#B76C4E" stroke-miterlimit="10"/>
<path opacity="0.3" d="M1311.72 479.365C1311.72 464.532 1323.68 452.565 1338.52 452.565C1353.35 452.565 1365.32 464.532 1365.32 479.365" stroke="#B76C4E" stroke-miterlimit="10"/>
<path opacity="0.3" d="M1029.56 261.594C1029.56 246.762 1041.52 234.794 1056.19 234.794C1070.85 234.794 1082.82 246.762 1082.82 261.594" stroke="#B76C4E" stroke-miterlimit="10"/>
<path opacity="0.3" d="M1705.62 305.418C1690.79 305.418 1678.82 293.451 1678.82 278.787C1678.82 264.123 1690.79 252.155 1705.62 252.155" stroke="#B76C4E" stroke-miterlimit="10"/>
<path opacity="0.3" d="M1059.73 931.255C1044.89 931.255 1032.93 919.288 1032.93 904.624C1032.93 889.96 1044.89 877.993 1059.73 877.993" stroke="#B76C4E" stroke-miterlimit="10"/>
<path opacity="0.3" d="M1347.62 78.2087C1332.79 78.2087 1320.82 66.2414 1320.82 51.5773C1320.82 36.9132 1332.79 24.9459 1347.62 24.9459" stroke="#B76C4E" stroke-miterlimit="10"/>
<path opacity="0.3" d="M1073.21 649.098C1073.21 663.93 1061.25 675.898 1046.41 675.898C1031.58 675.898 1019.61 663.93 1019.61 649.098C1019.61 634.265 1031.58 622.298 1046.41 622.298C1061.25 622.298 1073.21 634.265 1073.21 649.098Z" stroke="#B76C4E" stroke-miterlimit="10"/>
<path opacity="0.3" d="M1900.3 679.774C1900.3 694.607 1888.34 706.574 1873.5 706.574C1858.67 706.574 1846.7 694.607 1846.7 679.774C1846.7 664.942 1858.67 652.974 1873.5 652.974C1888.34 652.974 1900.3 664.942 1900.3 679.774Z" stroke="#B76C4E" stroke-miterlimit="10"/>
<path opacity="0.3" d="M1879.57 251.987H1826.14V305.418H1879.57V251.987Z" stroke="#B76C4E" stroke-miterlimit="10"/>
<path opacity="0.3" d="M1276.32 278.787H1222.89V332.218H1276.32V278.787Z" stroke="#B76C4E" stroke-miterlimit="10"/>
<path opacity="0.3" d="M1273.62 619.432H1220.19V672.864H1273.62V619.432Z" stroke="#B76C4E" stroke-miterlimit="10"/>
<path opacity="0.3" d="M1879.57 877.824H1826.14V931.255H1879.57V877.824Z" stroke="#B76C4E" stroke-miterlimit="10"/>
<path opacity="0.3" d="M1658.26 24.7773H1604.83V78.2086H1658.26V24.7773Z" stroke="#B76C4E" stroke-miterlimit="10"/>
<g opacity="0.3">
<path opacity="0.3" d="M1528.14 567.349C1516.51 567.349 1518.53 546.617 1503.7 546.617" stroke="#B76C4E" stroke-miterlimit="10"/>
<path opacity="0.3" d="M1577.19 567.349C1565.56 567.349 1567.58 546.617 1552.75 546.617" stroke="#B76C4E" stroke-miterlimit="10"/>
<path opacity="0.3" d="M1528.14 567.349C1539.77 567.349 1537.75 546.617 1552.58 546.617" stroke="#B76C4E" stroke-miterlimit="10"/>
<path opacity="0.3" d="M1577.19 567.349C1588.82 567.349 1586.79 546.617 1601.63 546.617" stroke="#B76C4E" stroke-miterlimit="10"/>
</g>
<g opacity="0.3">
<path opacity="0.3" d="M1667.7 951.987C1656.07 951.987 1658.09 931.255 1643.26 931.255" stroke="#B76C4E" stroke-miterlimit="10"/>
<path opacity="0.3" d="M1716.75 951.987C1705.12 951.987 1707.14 931.255 1692.31 931.255" stroke="#B76C4E" stroke-miterlimit="10"/>
<path opacity="0.3" d="M1667.7 951.987C1679.33 951.987 1677.31 931.255 1692.14 931.255" stroke="#B76C4E" stroke-miterlimit="10"/>
<path opacity="0.3" d="M1716.75 951.987C1728.38 951.987 1726.35 931.255 1741.19 931.255" stroke="#B76C4E" stroke-miterlimit="10"/>
</g>
<g opacity="0.3">
<path opacity="0.3" d="M1734.62 397.448C1722.99 397.448 1725.01 376.716 1710.18 376.716" stroke="#B76C4E" stroke-miterlimit="10"/>
<path opacity="0.3" d="M1783.5 397.448C1771.87 397.448 1773.89 376.716 1759.05 376.716" stroke="#B76C4E" stroke-miterlimit="10"/>
<path opacity="0.3" d="M1734.61 397.448C1746.25 397.448 1744.22 376.716 1759.06 376.716" stroke="#B76C4E" stroke-miterlimit="10"/>
<path opacity="0.3" d="M1783.49 397.448C1795.13 397.448 1793.1 376.716 1807.94 376.716" stroke="#B76C4E" stroke-miterlimit="10"/>
</g>
<g opacity="0.3">
<path opacity="0.3" d="M1053.15 372.502C1041.52 372.502 1043.55 351.77 1028.71 351.77" stroke="#B76C4E" stroke-miterlimit="10"/>
<path opacity="0.3" d="M1102.2 372.502C1090.57 372.502 1092.59 351.77 1077.76 351.77" stroke="#B76C4E" stroke-miterlimit="10"/>
<path opacity="0.3" d="M1053.15 372.502C1064.78 372.502 1062.76 351.77 1077.59 351.77" stroke="#B76C4E" stroke-miterlimit="10"/>
<path opacity="0.3" d="M1102.2 372.502C1113.83 372.502 1111.81 351.77 1126.64 351.77" stroke="#B76C4E" stroke-miterlimit="10"/>
</g>
<g opacity="0.3">
<path opacity="0.3" d="M1532.18 95.9066C1532.18 107.537 1511.45 105.514 1511.45 120.347" stroke="#B76C4E" stroke-miterlimit="10"/>
<path opacity="0.3" d="M1532.18 46.8578C1532.18 58.4879 1511.45 56.4653 1511.45 71.298" stroke="#B76C4E" stroke-miterlimit="10"/>
<path opacity="0.3" d="M1532.18 95.9066C1532.18 84.2765 1511.45 86.2991 1511.45 71.4664" stroke="#B76C4E" stroke-miterlimit="10"/>
<path opacity="0.3" d="M1532.18 46.8578C1532.18 35.2276 1511.45 37.2503 1511.45 22.4176" stroke="#B76C4E" stroke-miterlimit="10"/>
</g>
<g opacity="0.3">
<path opacity="0.3" d="M1382 352.276C1382 363.906 1361.27 361.883 1361.27 376.716" stroke="#B76C4E" stroke-miterlimit="10"/>
<path opacity="0.3" d="M1382 303.227C1382 314.857 1361.27 312.834 1361.27 327.667" stroke="#B76C4E" stroke-miterlimit="10"/>
<path opacity="0.3" d="M1382 352.276C1382 340.645 1361.27 342.668 1361.27 327.835" stroke="#B76C4E" stroke-miterlimit="10"/>
<path opacity="0.3" d="M1382 303.227C1382 291.597 1361.27 293.619 1361.27 278.787" stroke="#B76C4E" stroke-miterlimit="10"/>
</g>
<g opacity="0.3">
<path opacity="0.3" d="M1789.23 761.691C1789.23 773.321 1768.49 771.299 1768.49 786.131" stroke="#B76C4E" stroke-miterlimit="10"/>
<path opacity="0.3" d="M1789.23 712.642C1789.23 724.272 1768.49 722.25 1768.49 737.082" stroke="#B76C4E" stroke-miterlimit="10"/>
<path opacity="0.3" d="M1789.23 761.691C1789.23 750.061 1768.49 752.083 1768.49 737.251" stroke="#B76C4E" stroke-miterlimit="10"/>
<path opacity="0.3" d="M1789.23 712.642C1789.23 701.012 1768.49 703.035 1768.49 688.202" stroke="#B76C4E" stroke-miterlimit="10"/>
</g>
<g opacity="0.3">
<path opacity="0.3" d="M1283.9 800.29C1283.9 811.92 1263.17 809.897 1263.17 824.73" stroke="#B76C4E" stroke-miterlimit="10"/>
<path opacity="0.3" d="M1283.9 751.241C1283.9 762.871 1263.17 760.848 1263.17 775.681" stroke="#B76C4E" stroke-miterlimit="10"/>
<path opacity="0.3" d="M1283.9 800.29C1283.9 788.66 1263.17 790.682 1263.17 775.85" stroke="#B76C4E" stroke-miterlimit="10"/>
<path opacity="0.3" d="M1283.9 751.241C1283.9 739.611 1263.17 741.633 1263.17 726.801" stroke="#B76C4E" stroke-miterlimit="10"/>
</g>
<path opacity="0.3" d="M1586.79 622.298H1647.3" stroke="#B76C4E" stroke-miterlimit="10"/>
<path opacity="0.3" d="M992.476 447.508H1052.99" stroke="#B76C4E" stroke-miterlimit="10"/>
<path opacity="0.3" d="M1591.35 166.53H1651.86" stroke="#B76C4E" stroke-miterlimit="10"/>
<path opacity="0.3" d="M1829.68 30.171H1890.19" stroke="#B76C4E" stroke-miterlimit="10"/>
<path opacity="0.3" d="M1233.51 931.255H1294.02" stroke="#B76C4E" stroke-miterlimit="10"/>
<path opacity="0.3" d="M1388.74 814.448L1431.56 771.636" stroke="#B76C4E" stroke-miterlimit="10"/>
<path opacity="0.3" d="M1034.95 72.8149L1077.59 30.171" stroke="#B76C4E" stroke-miterlimit="10"/>
<path opacity="0.3" d="M1859.85 511.053L1902.66 468.409" stroke="#B76C4E" stroke-miterlimit="10"/>
</g>
<path d="M550.413 742.652C545.562 745.657 539.038 744.322 536.027 739.313C533.015 734.471 534.354 727.96 539.372 724.954C544.223 721.949 550.747 723.285 553.759 728.294C556.77 732.968 555.264 739.48 550.413 742.652Z" stroke="#B76C4E" stroke-width="5" stroke-miterlimit="10" stroke-linecap="round" stroke-linejoin="round"/>
<path d="M1504.46 742.652C1499.61 745.657 1493.09 744.322 1490.08 739.313C1487.06 734.471 1488.4 727.96 1493.42 724.954C1498.27 721.949 1504.8 723.285 1507.81 728.294C1510.82 732.968 1509.31 739.48 1504.46 742.652Z" stroke="#B76C4E" stroke-width="5" stroke-miterlimit="10" stroke-linecap="round" stroke-linejoin="round"/>
<path d="M466.908 452.471C462.056 455.476 455.532 454.141 452.521 449.132C449.51 444.29 450.848 437.779 455.867 434.773C460.718 431.768 467.242 433.104 470.253 438.112C473.264 442.954 471.759 449.466 466.908 452.471Z" stroke="#B76C4E" stroke-width="5" stroke-miterlimit="10" stroke-linecap="round" stroke-linejoin="round"/>
<path d="M1420.96 452.471C1416.1 455.476 1409.58 454.141 1406.57 449.132C1403.56 444.29 1404.9 437.779 1409.92 434.773C1414.77 431.768 1421.29 433.104 1424.3 438.112C1427.31 442.954 1425.81 449.466 1420.96 452.471Z" stroke="#B76C4E" stroke-width="5" stroke-miterlimit="10" stroke-linecap="round" stroke-linejoin="round"/>
<path d="M86.7133 542.16C81.6196 545.315 74.7694 543.913 71.6077 538.654C68.4461 533.57 69.8513 526.733 75.1207 523.577C80.2144 520.422 87.0646 521.824 90.2263 527.083C93.3879 532.167 91.8071 538.829 86.7133 542.16Z" stroke="#B76C4E" stroke-width="5" stroke-miterlimit="10" stroke-linecap="round" stroke-linejoin="round"/>
<path d="M1040.76 542.16C1035.67 545.315 1028.82 543.913 1025.66 538.654C1022.49 533.57 1023.9 526.733 1029.17 523.577C1034.26 520.422 1041.11 521.824 1044.27 527.083C1047.44 532.167 1045.86 538.829 1040.76 542.16Z" stroke="#B76C4E" stroke-width="5" stroke-miterlimit="10" stroke-linecap="round" stroke-linejoin="round"/>
<path d="M194.471 209.262C189.62 212.267 183.096 210.931 180.085 205.922C177.074 201.081 178.412 194.569 183.431 191.564C188.282 188.559 194.806 189.894 197.817 194.903C200.828 199.745 199.323 206.089 194.471 209.262Z" stroke="#B76C4E" stroke-width="5" stroke-miterlimit="10" stroke-linecap="round" stroke-linejoin="round"/>
<path d="M1148.52 209.262C1143.67 212.267 1137.14 210.931 1134.13 205.922C1131.12 201.081 1132.46 194.569 1137.48 191.564C1142.33 188.559 1148.85 189.894 1151.87 194.903C1154.88 199.745 1153.37 206.089 1148.52 209.262Z" stroke="#B76C4E" stroke-width="5" stroke-miterlimit="10" stroke-linecap="round" stroke-linejoin="round"/>
<path d="M775.877 204.043C771.026 207.048 764.502 205.712 761.491 200.703C758.48 195.862 759.818 189.35 764.837 186.345C769.688 183.34 776.212 184.675 779.223 189.684C782.234 194.526 780.729 200.87 775.877 204.043Z" stroke="#B76C4E" stroke-width="5" stroke-miterlimit="10" stroke-linecap="round" stroke-linejoin="round"/>
<path d="M1729.93 204.043C1725.07 207.048 1718.55 205.712 1715.54 200.703C1712.53 195.862 1713.87 189.35 1718.89 186.345C1723.74 183.34 1730.26 184.675 1733.27 189.684C1736.28 194.526 1734.78 200.87 1729.93 204.043Z" stroke="#B76C4E" stroke-width="5" stroke-miterlimit="10" stroke-linecap="round" stroke-linejoin="round"/>
<path d="M925.056 580.781C920.231 583.936 913.743 582.534 910.748 577.275C907.753 572.191 909.084 565.354 914.076 562.198C918.9 559.043 925.389 560.445 928.383 565.704C931.544 570.788 930.047 577.45 925.056 580.781Z" stroke="#B76C4E" stroke-width="5" stroke-miterlimit="10" stroke-linecap="round" stroke-linejoin="round"/>
<path d="M1879.1 580.781C1874.28 583.936 1867.79 582.534 1864.8 577.275C1861.8 572.191 1863.13 565.354 1868.12 562.198C1872.95 559.043 1879.44 560.445 1882.43 565.704C1885.59 570.788 1884.1 577.45 1879.1 580.781Z" stroke="#B76C4E" stroke-width="5" stroke-miterlimit="10" stroke-linecap="round" stroke-linejoin="round"/>
</g>
</svg>
